# Blender 5.0.1
# www.blender.org
mtllib SphericalPaperLantern_export.mtl
o Sphere.014
v 0.000000 1.461320 -0.847653
v -0.000000 1.193163 -1.198762
v -0.000000 1.027216 -1.344976
v -0.000000 0.843694 -1.468178
v -0.000000 0.645735 -1.566258
v -0.000000 0.436728 -1.637540
v -0.000000 0.220248 -1.680802
v 0.000000 0.000000 -1.695306
v -0.000000 -0.220248 -1.680802
v -0.000000 -0.436728 -1.637540
v -0.000000 -0.645735 -1.566258
v -0.000000 -0.843694 -1.468178
v -0.000000 -1.027216 -1.344976
v -0.000000 -1.193163 -1.198762
v -0.000000 -1.338694 -1.032037
v 0.000000 -1.461320 -0.847653
v 0.324383 1.461320 -0.783129
v 0.394943 1.338694 -0.953478
v 0.458746 1.193163 -1.107512
v 0.514700 1.027216 -1.242596
v 0.561847 0.843694 -1.356419
v 0.599381 0.645735 -1.447034
v 0.626659 0.436728 -1.512889
v 0.643215 0.220248 -1.552859
v 0.648765 0.000000 -1.566258
v 0.643215 -0.220248 -1.552859
v 0.626659 -0.436728 -1.512889
v 0.599381 -0.645735 -1.447034
v 0.561847 -0.843694 -1.356419
v 0.514700 -1.027216 -1.242596
v 0.458746 -1.193163 -1.107512
v 0.394943 -1.338694 -0.953478
v 0.324383 -1.461320 -0.783129
v 0.599381 1.461320 -0.599381
v 0.729760 1.338694 -0.729760
v 0.847653 1.193163 -0.847653
v 0.951042 1.027216 -0.951042
v 1.038159 0.843694 -1.038158
v 1.107512 0.645735 -1.107512
v 1.157915 0.436728 -1.157915
v 1.188507 0.220248 -1.188507
v 1.198762 0.000000 -1.198762
v 1.188507 -0.220248 -1.188507
v 1.157915 -0.436728 -1.157915
v 1.107512 -0.645735 -1.107512
v 1.038159 -0.843694 -1.038158
v 0.951042 -1.027216 -0.951042
v 0.847653 -1.193163 -0.847653
v 0.729760 -1.338694 -0.729760
v 0.599381 -1.461320 -0.599381
v 0.783129 1.461320 -0.324383
v 0.953478 1.338694 -0.394943
v 1.107512 1.193163 -0.458746
v 1.242596 1.027216 -0.514700
v 1.356419 0.843694 -0.561847
v 1.447034 0.645735 -0.599381
v 1.512889 0.436728 -0.626659
v 1.552858 0.220248 -0.643215
v 1.566258 0.000000 -0.648765
v 1.552858 -0.220248 -0.643215
v 1.512889 -0.436728 -0.626659
v 1.447034 -0.645735 -0.599381
v 1.356419 -0.843694 -0.561847
v 1.242596 -1.027216 -0.514700
v 1.107512 -1.193163 -0.458746
v 0.953478 -1.338694 -0.394943
v 0.783129 -1.461320 -0.324383
v 0.847653 1.461320 0.000000
v 1.032037 1.338694 0.000000
v 1.198762 1.193163 0.000000
v 1.344976 1.027216 0.000000
v 1.468178 0.843694 0.000000
v 1.566258 0.645735 0.000000
v 1.637539 0.436728 0.000000
v 1.680802 0.220248 0.000000
v 1.695306 0.000000 0.000000
v 1.680802 -0.220248 0.000000
v 1.637539 -0.436728 0.000000
v 1.566258 -0.645735 0.000000
v 1.468178 -0.843694 0.000000
v 1.344976 -1.027216 0.000000
v 1.198762 -1.193163 0.000000
v 1.032037 -1.338694 0.000000
v 0.847653 -1.461320 0.000000
v 0.783129 1.461320 0.324383
v 0.953477 1.338694 0.394943
v 1.107512 1.193163 0.458747
v 1.242596 1.027216 0.514700
v 1.356419 0.843694 0.561848
v 1.447034 0.645735 0.599381
v 1.512889 0.436728 0.626659
v 1.552859 0.220248 0.643215
v 1.566258 0.000000 0.648766
v 1.552859 -0.220248 0.643215
v 1.512889 -0.436728 0.626659
v 1.447034 -0.645735 0.599381
v 1.356419 -0.843694 0.561848
v 1.242596 -1.027216 0.514700
v 1.107512 -1.193163 0.458747
v 0.953477 -1.338694 0.394944
v 0.783129 -1.461320 0.324383
v 0.599381 1.461320 0.599381
v 0.729760 1.338694 0.729760
v 0.847652 1.193163 0.847653
v 0.951042 1.027216 0.951042
v 1.038158 0.843694 1.038159
v 1.107512 0.645735 1.107512
v 1.157915 0.436728 1.157915
v 1.188507 0.220248 1.188507
v 1.198762 0.000000 1.198762
v 1.188507 -0.220248 1.188507
v 1.157915 -0.436728 1.157915
v 1.107512 -0.645735 1.107512
v 1.038158 -0.843694 1.038159
v 0.951042 -1.027216 0.951042
v 0.847652 -1.193163 0.847653
v 0.729760 -1.338694 0.729760
v 0.599381 -1.461320 0.599381
v 0.324382 1.461320 0.783129
v 0.394943 1.338694 0.953477
v 0.458746 1.193163 1.107512
v 0.514700 1.027216 1.242596
v 0.561847 0.843694 1.356419
v 0.599381 0.645735 1.447034
v 0.626659 0.436728 1.512889
v 0.643215 0.220248 1.552859
v 0.648765 0.000000 1.566258
v 0.643215 -0.220248 1.552859
v 0.626659 -0.436728 1.512889
v 0.599381 -0.645735 1.447034
v 0.561847 -0.843694 1.356419
v 0.514700 -1.027216 1.242596
v 0.458746 -1.193163 1.107512
v 0.394943 -1.338694 0.953477
v 0.324382 -1.461320 0.783129
v -0.000000 1.461320 0.847653
v -0.000000 1.338694 1.032036
v -0.000000 1.193163 1.198762
v -0.000000 1.027216 1.344976
v -0.000000 0.843694 1.468177
v -0.000000 0.645735 1.566258
v -0.000000 0.436728 1.637539
v -0.000000 0.220248 1.680802
v -0.000001 0.000000 1.695306
v -0.000000 -0.220248 1.680802
v -0.000000 -0.436728 1.637539
v -0.000000 -0.645735 1.566258
v -0.000000 -0.843694 1.468177
v -0.000000 -1.027216 1.344976
v -0.000000 -1.193163 1.198762
v -0.000000 -1.338694 1.032036
v -0.000000 -1.461320 0.847653
v -0.324383 1.461320 0.783129
v -0.394944 1.338694 0.953477
v -0.458747 1.193163 1.107511
v -0.514700 1.027216 1.242596
v -0.561848 0.843694 1.356419
v -0.599381 0.645735 1.447034
v -0.626659 0.436728 1.512889
v -0.643215 0.220248 1.552858
v -0.648766 0.000000 1.566258
v -0.643215 -0.220248 1.552858
v -0.626659 -0.436728 1.512889
v -0.599381 -0.645735 1.447034
v -0.561848 -0.843694 1.356419
v -0.514700 -1.027216 1.242596
v -0.458747 -1.193163 1.107511
v -0.394944 -1.338694 0.953477
v -0.324383 -1.461320 0.783129
v -0.599381 1.461320 0.599381
v -0.729760 1.338694 0.729760
v -0.847653 1.193163 0.847652
v -0.951042 1.027216 0.951041
v -1.038159 0.843694 1.038158
v -1.107512 0.645735 1.107511
v -1.157915 0.436728 1.157915
v -1.188507 0.220248 1.188506
v -1.198763 0.000000 1.198762
v -1.188507 -0.220248 1.188506
v -1.157915 -0.436728 1.157915
v -1.107512 -0.645735 1.107511
v -1.038159 -0.843694 1.038158
v -0.951042 -1.027216 0.951041
v -0.847653 -1.193163 0.847652
v -0.729760 -1.338694 0.729760
v -0.599381 -1.461320 0.599381
v -0.783129 1.461320 0.324382
v -0.953477 1.338694 0.394943
v -1.107512 1.193163 0.458746
v -1.242596 1.027216 0.514700
v -1.356419 0.843694 0.561847
v -1.447034 0.645735 0.599380
v -1.512889 0.436728 0.626659
v -1.552859 0.220248 0.643215
v -1.566258 0.000000 0.648765
v -1.552859 -0.220248 0.643215
v -1.512889 -0.436728 0.626659
v -1.447034 -0.645735 0.599380
v -1.356419 -0.843694 0.561847
v -1.242596 -1.027216 0.514700
v -1.107512 -1.193163 0.458746
v -0.953477 -1.338694 0.394943
v -0.783129 -1.461320 0.324382
v -0.847653 1.461320 -0.000000
v -1.032036 1.338694 -0.000000
v -1.198762 1.193163 -0.000001
v -1.344976 1.027216 -0.000001
v -1.468178 0.843694 -0.000000
v -1.566258 0.645735 -0.000001
v -1.637539 0.436728 -0.000001
v -1.680802 0.220248 -0.000000
v -1.695305 0.000000 -0.000001
v -1.680802 -0.220248 -0.000000
v -1.637539 -0.436728 -0.000001
v -1.566258 -0.645735 -0.000001
v -1.468178 -0.843694 -0.000000
v -1.344976 -1.027216 -0.000001
v -1.198762 -1.193163 -0.000001
v -1.032036 -1.338694 -0.000000
v -0.847653 -1.461320 -0.000000
v -0.783129 1.461320 -0.324383
v -0.953477 1.338694 -0.394944
v -1.107511 1.193163 -0.458747
v -1.242595 1.027216 -0.514701
v -1.356419 0.843694 -0.561848
v -1.447033 0.645735 -0.599382
v -1.512888 0.436728 -0.626660
v -1.552858 0.220248 -0.643215
v -1.566258 0.000000 -0.648766
v -1.552858 -0.220248 -0.643215
v -1.512888 -0.436728 -0.626660
v -1.447033 -0.645735 -0.599382
v -1.356419 -0.843694 -0.561848
v -1.242595 -1.027216 -0.514701
v -1.107511 -1.193163 -0.458747
v -0.953477 -1.338694 -0.394944
v -0.783129 -1.461320 -0.324383
v -0.599381 1.461320 -0.599381
v -0.729760 1.338694 -0.729760
v -0.847652 1.193163 -0.847653
v -0.951041 1.027216 -0.951042
v -1.038158 0.843694 -1.038159
v -1.107511 0.645735 -1.107512
v -1.157914 0.436728 -1.157915
v -1.188506 0.220248 -1.188507
v -1.198761 0.000000 -1.198763
v -1.188506 -0.220248 -1.188507
v -1.157914 -0.436728 -1.157915
v -1.107511 -0.645735 -1.107512
v -1.038158 -0.843694 -1.038159
v -0.951041 -1.027216 -0.951042
v -0.847652 -1.193163 -0.847653
v -0.729760 -1.338694 -0.729760
v -0.599381 -1.461320 -0.599381
v -0.324382 1.461320 -0.783129
v -0.394943 1.338694 -0.953477
v -0.458746 1.193163 -1.107512
v -0.514699 1.027216 -1.242596
v -0.561847 0.843694 -1.356419
v -0.599380 0.645735 -1.447034
v -0.626658 0.436728 -1.512889
v -0.643214 0.220248 -1.552859
v -0.648764 0.000000 -1.566258
v -0.643214 -0.220248 -1.552859
v -0.626658 -0.436728 -1.512889
v -0.599380 -0.645735 -1.447034
v -0.561847 -0.843694 -1.356419
v -0.514699 -1.027216 -1.242596
v -0.458746 -1.193163 -1.107512
v -0.394943 -1.338694 -0.953477
v -0.324382 -1.461320 -0.783129
v 0.000001 1.338694 -1.032036
v -0.000000 1.561028 -0.633173
v -0.000000 -1.561028 -0.633173
v 0.242305 1.561028 -0.584976
v 0.242305 -1.561028 -0.584976
v 0.447721 1.561028 -0.447721
v 0.447721 -1.561028 -0.447721
v 0.584976 1.561028 -0.242305
v 0.584976 -1.561028 -0.242305
v 0.633173 1.561028 0.000000
v 0.633173 -1.561028 0.000000
v 0.584976 1.561028 0.242305
v 0.584976 -1.561028 0.242305
v 0.447721 1.561028 0.447721
v 0.447721 -1.561028 0.447721
v 0.242305 1.561028 0.584976
v 0.242305 -1.561028 0.584976
v -0.000000 1.561028 0.633173
v -0.000000 -1.561028 0.633173
v -0.242305 1.561028 0.584976
v -0.242305 -1.561028 0.584976
v -0.447721 1.561028 0.447721
v -0.447721 -1.561028 0.447721
v -0.584976 1.561028 0.242305
v -0.584976 -1.561028 0.242305
v -0.633173 1.561028 -0.000000
v -0.633173 -1.561028 -0.000000
v -0.584976 1.561028 -0.242305
v -0.584976 -1.561028 -0.242305
v -0.447721 1.561028 -0.447721
v -0.447721 -1.561028 -0.447721
v -0.242305 1.561028 -0.584976
v -0.242305 -1.561028 -0.584976
v 0.000000 1.503322 -0.740824
v 0.283501 1.503322 -0.684432
v -0.283501 1.503322 -0.684432
v 0.523842 1.503322 -0.523842
v 0.684432 1.503322 -0.283501
v 0.740824 1.503322 0.000000
v 0.684432 1.503322 0.283501
v 0.523841 1.503322 0.523842
v 0.283501 1.503322 0.684432
v -0.000000 1.503322 0.740824
v -0.283501 1.503322 0.684432
v -0.523842 1.503322 0.523841
v -0.684432 1.503322 0.283501
v -0.740824 1.503322 -0.000000
v -0.684432 1.503322 -0.283501
v -0.523841 1.503322 -0.523842
v 0.000000 1.393498 -0.931106
v 0.356319 1.393498 -0.860230
v -0.356318 1.393498 -0.860230
v 0.658391 1.393498 -0.658391
v 0.860230 1.393498 -0.356319
v 0.931106 1.393498 0.000000
v 0.860230 1.393498 0.356319
v 0.658391 1.393498 0.658391
v 0.356318 1.393498 0.860230
v -0.000000 1.393498 0.931106
v -0.356319 1.393498 0.860229
v -0.658391 1.393498 0.658391
v -0.860230 1.393498 0.356318
v -0.931106 1.393498 -0.000000
v -0.860229 1.393498 -0.356319
v -0.658391 1.393498 -0.658391
v 0.000000 1.260043 -1.105028
v 0.422876 1.260043 -1.020913
v -0.422875 1.260043 -1.020913
v 0.781373 1.260043 -0.781373
v 1.020913 1.260043 -0.422876
v 1.105028 1.260043 0.000000
v 1.020913 1.260043 0.422876
v 0.781373 1.260043 0.781373
v 0.422876 1.260043 1.020913
v -0.000000 1.260043 1.105028
v -0.422876 1.260043 1.020912
v -0.781373 1.260043 0.781372
v -1.020913 1.260043 0.422875
v -1.105028 1.260043 -0.000000
v -1.020912 1.260043 -0.422876
v -0.781372 1.260043 -0.781373
v -0.482197 1.105028 -1.164128
v 0.000000 1.105028 -1.260043
v 0.482198 1.105028 -1.164128
v 0.890985 1.105028 -0.890985
v 1.164128 1.105028 -0.482197
v 1.260043 1.105028 0.000000
v 1.164128 1.105028 0.482198
v 0.890985 1.105028 0.890985
v 0.482197 1.105028 1.164128
v -0.000000 1.105028 1.260043
v -0.482198 1.105028 1.164127
v -0.890985 1.105028 0.890984
v -1.164128 1.105028 0.482197
v -1.260043 1.105028 -0.000001
v -1.164127 1.105028 -0.482198
v -0.890984 1.105028 -0.890985
v -0.533268 0.931106 -1.287424
v 0.000000 0.931106 -1.393498
v 0.533269 0.931106 -1.287425
v 0.985352 0.931106 -0.985352
v 1.287425 0.931106 -0.533268
v 1.393498 0.931106 0.000000
v 1.287424 0.931106 0.533269
v 0.985352 0.931106 0.985352
v 0.533268 0.931106 1.287425
v -0.000000 0.931106 1.393498
v -0.533269 0.931106 1.287424
v -0.985352 0.931106 0.985352
v -1.287424 0.931106 0.533268
v -1.393498 0.931106 -0.000001
v -1.287424 0.931106 -0.533269
v -0.985351 0.931106 -0.985352
v -0.575215 0.741252 -1.388693
v 0.000000 0.741252 -1.503110
v 0.575216 0.741252 -1.388693
v 1.062860 0.741252 -1.062860
v 1.388693 0.741252 -0.575215
v 1.503110 0.741252 0.000000
v 1.388693 0.741252 0.575216
v 1.062859 0.741252 1.062860
v 0.575215 0.741252 1.388693
v -0.000000 0.741252 1.503110
v -0.575216 0.741252 1.388692
v -1.062860 0.741252 1.062859
v -1.388693 0.741252 0.575215
v -1.503110 0.741252 -0.000001
v -1.388692 0.741252 -0.575216
v -1.062859 0.741252 -1.062860
v -0.607319 0.538715 -1.466200
v 0.000000 0.538715 -1.587004
v 0.607320 0.538715 -1.466200
v 1.122181 0.538715 -1.122181
v 1.466200 0.538715 -0.607320
v 1.587004 0.538715 0.000000
v 1.466200 0.538715 0.607320
v 1.122181 0.538715 1.122181
v 0.607320 0.538715 1.466200
v -0.000000 0.538715 1.587004
v -0.607320 0.538715 1.466200
v -1.122181 0.538715 1.122181
v -1.466200 0.538715 0.607320
v -1.587003 0.538715 -0.000001
v -1.466200 0.538715 -0.607321
v -1.122180 0.538715 -1.122181
v -0.629033 0.326961 -1.518621
v 0.000000 0.326961 -1.643743
v 0.629033 0.326961 -1.518621
v 1.162302 0.326961 -1.162302
v 1.518621 0.326961 -0.629033
v 1.643743 0.326961 0.000000
v 1.518621 0.326961 0.629034
v 1.162302 0.326961 1.162302
v 0.629033 0.326961 1.518621
v -0.000000 0.326961 1.643743
v -0.629034 0.326961 1.518620
v -1.162302 0.326961 1.162302
v -1.518621 0.326961 0.629033
v -1.643743 0.326961 -0.000001
v -1.518620 0.326961 -0.629034
v -1.162301 0.326961 -1.162302
v -0.639983 0.109612 -1.545057
v 0.000000 0.109612 -1.672358
v 0.639984 0.109612 -1.545057
v 1.182536 0.109612 -1.182535
v 1.545057 0.109612 -0.639984
v 1.672358 0.109612 0.000000
v 1.545057 0.109612 0.639984
v 1.182535 0.109612 1.182536
v 0.639983 0.109612 1.545057
v -0.000000 0.109612 1.672358
v -0.639984 0.109612 1.545057
v -1.182536 0.109612 1.182535
v -1.545057 0.109612 0.639983
v -1.672358 0.109612 -0.000001
v -1.545057 0.109612 -0.639984
v -1.182535 0.109612 -1.182536
v -0.639983 -0.109612 -1.545057
v 0.000000 -0.109612 -1.672358
v 0.639984 -0.109612 -1.545057
v 1.182536 -0.109612 -1.182535
v 1.545057 -0.109612 -0.639984
v 1.672358 -0.109612 0.000000
v 1.545057 -0.109612 0.639984
v 1.182535 -0.109612 1.182536
v 0.639983 -0.109612 1.545057
v -0.000000 -0.109612 1.672358
v -0.639984 -0.109612 1.545057
v -1.182536 -0.109612 1.182535
v -1.545057 -0.109612 0.639983
v -1.672358 -0.109612 -0.000001
v -1.545057 -0.109612 -0.639984
v -1.182535 -0.109612 -1.182536
v -0.629033 -0.326961 -1.518621
v 0.000000 -0.326961 -1.643743
v 0.629033 -0.326961 -1.518621
v 1.162302 -0.326961 -1.162302
v 1.518621 -0.326961 -0.629033
v 1.643743 -0.326961 0.000000
v 1.518621 -0.326961 0.629034
v 1.162302 -0.326961 1.162302
v 0.629033 -0.326961 1.518621
v -0.000000 -0.326961 1.643743
v -0.629034 -0.326961 1.518620
v -1.162302 -0.326961 1.162302
v -1.518621 -0.326961 0.629033
v -1.643743 -0.326961 -0.000001
v -1.518620 -0.326961 -0.629034
v -1.162301 -0.326961 -1.162302
v -0.607319 -0.538715 -1.466200
v 0.000000 -0.538715 -1.587004
v 0.607320 -0.538715 -1.466200
v 1.122181 -0.538715 -1.122181
v 1.466200 -0.538715 -0.607320
v 1.587004 -0.538715 0.000000
v 1.466200 -0.538715 0.607320
v 1.122181 -0.538715 1.122181
v 0.607320 -0.538715 1.466200
v -0.000000 -0.538715 1.587004
v -0.607320 -0.538715 1.466200
v -1.122181 -0.538715 1.122181
v -1.466200 -0.538715 0.607320
v -1.587003 -0.538715 -0.000001
v -1.466200 -0.538715 -0.607321
v -1.122180 -0.538715 -1.122181
v -0.575215 -0.741252 -1.388693
v 0.000000 -0.741252 -1.503110
v 0.575216 -0.741252 -1.388693
v 1.062860 -0.741252 -1.062860
v 1.388693 -0.741252 -0.575215
v 1.503110 -0.741252 0.000000
v 1.388693 -0.741252 0.575216
v 1.062859 -0.741252 1.062860
v 0.575215 -0.741252 1.388693
v -0.000000 -0.741252 1.503110
v -0.575216 -0.741252 1.388692
v -1.062860 -0.741252 1.062859
v -1.388693 -0.741252 0.575215
v -1.503110 -0.741252 -0.000001
v -1.388692 -0.741252 -0.575216
v -1.062859 -0.741252 -1.062860
v -0.533268 -0.931106 -1.287424
v 0.000000 -0.931106 -1.393498
v 0.533269 -0.931106 -1.287425
v 0.985352 -0.931106 -0.985352
v 1.287425 -0.931106 -0.533268
v 1.393498 -0.931106 0.000000
v 1.287424 -0.931106 0.533269
v 0.985352 -0.931106 0.985352
v 0.533268 -0.931106 1.287425
v -0.000000 -0.931106 1.393498
v -0.533269 -0.931106 1.287424
v -0.985352 -0.931106 0.985352
v -1.287424 -0.931106 0.533268
v -1.393498 -0.931106 -0.000001
v -1.287424 -0.931106 -0.533269
v -0.985351 -0.931106 -0.985352
v -0.482197 -1.105028 -1.164128
v 0.000000 -1.105028 -1.260043
v 0.482198 -1.105028 -1.164128
v 0.890985 -1.105028 -0.890985
v 1.164128 -1.105028 -0.482197
v 1.260043 -1.105028 0.000000
v 1.164128 -1.105028 0.482198
v 0.890985 -1.105028 0.890985
v 0.482197 -1.105028 1.164128
v -0.000000 -1.105028 1.260043
v -0.482198 -1.105028 1.164127
v -0.890985 -1.105028 0.890984
v -1.164128 -1.105028 0.482197
v -1.260043 -1.105028 -0.000001
v -1.164127 -1.105028 -0.482198
v -0.890984 -1.105028 -0.890985
v -0.422875 -1.260043 -1.020913
v 0.000000 -1.260043 -1.105028
v 0.422876 -1.260043 -1.020913
v 0.781373 -1.260043 -0.781373
v 1.020913 -1.260043 -0.422876
v 1.105028 -1.260043 0.000000
v 1.020913 -1.260043 0.422876
v 0.781373 -1.260043 0.781373
v 0.422876 -1.260043 1.020913
v -0.000000 -1.260043 1.105028
v -0.422876 -1.260043 1.020912
v -0.781373 -1.260043 0.781372
v -1.020913 -1.260043 0.422875
v -1.105028 -1.260043 -0.000000
v -1.020912 -1.260043 -0.422876
v -0.781372 -1.260043 -0.781373
v -0.356318 -1.393498 -0.860230
v 0.000000 -1.393498 -0.931106
v 0.356319 -1.393498 -0.860230
v 0.658391 -1.393498 -0.658391
v 0.860230 -1.393498 -0.356319
v 0.931106 -1.393498 0.000000
v 0.860230 -1.393498 0.356319
v 0.658391 -1.393498 0.658391
v 0.356318 -1.393498 0.860230
v -0.000000 -1.393498 0.931106
v -0.356319 -1.393498 0.860229
v -0.658391 -1.393498 0.658391
v -0.860230 -1.393498 0.356318
v -0.931106 -1.393498 -0.000000
v -0.860229 -1.393498 -0.356319
v -0.658391 -1.393498 -0.658391
v -0.283501 -1.503322 -0.684432
v 0.000000 -1.503322 -0.740824
v 0.283501 -1.503322 -0.684432
v 0.523842 -1.503322 -0.523842
v 0.684432 -1.503322 -0.283501
v 0.740824 -1.503322 0.000000
v 0.684432 -1.503322 0.283501
v 0.523841 -1.503322 0.523842
v 0.283501 -1.503322 0.684432
v -0.000000 -1.503322 0.740824
v -0.283501 -1.503322 0.684432
v -0.523842 -1.503322 0.523841
v -0.684432 -1.503322 0.283501
v -0.740824 -1.503322 -0.000000
v -0.684432 -1.503322 -0.283501
v -0.523841 -1.503322 -0.523842
v -0.400680 -1.975462 0.400680
v -0.216846 -1.975462 0.523513
v -0.216846 -1.580837 -0.523513
v -0.400679 -1.580837 -0.400679
v -0.000000 -1.975462 0.566647
v -0.523513 -1.580837 -0.216846
v 0.216846 -1.975462 0.523514
v -0.566647 -1.580837 0.000000
v 0.400680 -1.975462 0.400680
v -0.523513 -1.580837 0.216846
v 0.523513 -1.975462 0.216847
v 0.000000 -1.580837 -0.566646
v 0.566647 -1.975462 0.000000
v 0.216846 -1.580837 -0.523513
v 0.523513 -1.975462 -0.216846
v 0.400680 -1.580837 -0.400679
v 0.400680 -1.975462 -0.400679
v 0.523513 -1.580837 -0.216846
v 0.216846 -1.975462 -0.523513
v 0.566647 -1.580837 0.000000
v 0.000000 -1.975462 -0.566646
v 0.217005 1.983538 -0.523899
v 0.400973 1.983538 -0.400976
v 0.523896 1.983538 -0.217008
v 0.567061 1.983538 -0.000003
v 0.523896 1.983538 0.217001
v 0.400973 1.983538 0.400969
v 0.217005 1.983538 0.523893
v -0.000000 1.983538 0.567057
v -0.217005 1.983538 0.523892
v -0.400973 1.983538 0.400969
v -0.523896 1.983538 0.217001
v -0.567061 1.983538 -0.000004
v -0.523896 1.983538 -0.217008
v -0.400972 1.983538 -0.400976
v -0.217005 1.983538 -0.523899
v 0.000000 1.983538 -0.567064
v 0.523513 -1.580837 0.216847
v -0.523513 -1.975462 0.216846
v 0.400680 -1.580837 0.400680
v -0.566647 -1.975462 0.000000
v 0.216846 -1.580837 0.523514
v -0.523513 -1.975462 -0.216846
v -0.000000 -1.580837 0.566647
v -0.400679 -1.975462 -0.400679
v -0.216846 -1.580837 0.523513
v -0.216846 -1.975462 -0.523513
v -0.400680 -1.580837 0.400680
v 0.000000 1.568924 -0.645735
v 0.000000 -1.568924 -0.645735
v 0.247112 1.568924 -0.596581
v 0.247112 -1.568924 -0.596581
v 0.456604 1.568924 -0.456603
v 0.456604 -1.568924 -0.456603
v 0.596581 1.568924 -0.247112
v 0.596581 -1.568924 -0.247112
v 0.645735 1.568924 0.000000
v 0.645735 -1.568924 0.000000
v 0.596581 1.568924 0.247113
v 0.596581 -1.568924 0.247113
v 0.456604 1.568924 0.456604
v 0.456604 -1.568924 0.456604
v 0.247112 1.568924 0.596582
v 0.247112 -1.568924 0.596582
v -0.000000 1.568924 0.645736
v -0.000000 -1.568924 0.645736
v -0.247112 1.568924 0.596582
v -0.247112 -1.568924 0.596582
v -0.456604 1.568924 0.456604
v -0.456604 -1.568924 0.456604
v -0.596582 1.568924 0.247112
v -0.596582 -1.568924 0.247112
v -0.645735 1.568924 0.000000
v -0.645735 -1.568924 0.000000
v -0.596581 1.568924 -0.247112
v -0.596581 -1.568924 -0.247112
v -0.456603 1.568924 -0.456604
v -0.456603 -1.568924 -0.456604
v -0.247112 1.568924 -0.596581
v -0.247112 -1.568924 -0.596581
v 0.247112 1.983536 -0.596581
v 0.000000 1.983536 -0.645735
v 0.456604 1.983536 -0.456603
v 0.596581 1.983536 -0.247112
v 0.645735 1.983536 0.000000
v 0.596581 1.983536 0.247113
v 0.456604 1.983536 0.456604
v 0.247112 1.983536 0.596582
v -0.000000 1.983536 0.645736
v -0.247112 1.983536 0.596582
v -0.456604 1.983536 0.456604
v -0.596582 1.983536 0.247112
v -0.645735 1.983536 0.000000
v -0.596581 1.983536 -0.247112
v -0.456603 1.983536 -0.456604
v -0.247112 1.983536 -0.596581
v -0.456604 -1.975464 0.456604
v -0.247112 -1.975464 0.596582
v -0.000000 -1.975464 0.645736
v 0.247112 -1.975464 0.596582
v 0.456604 -1.975464 0.456604
v 0.596581 -1.975464 0.247113
v 0.645735 -1.975464 0.000000
v 0.596581 -1.975464 -0.247112
v 0.456604 -1.975464 -0.456603
v 0.247112 -1.975464 -0.596581
v 0.000000 -1.975464 -0.645735
v -0.596582 -1.975464 0.247112
v -0.645735 -1.975464 0.000000
v -0.596581 -1.975464 -0.247112
v -0.456603 -1.975464 -0.456604
v -0.247112 -1.975464 -0.596581
v 0.217005 1.617450 -0.523899
v 0.400973 1.617450 -0.400976
v 0.523896 1.617450 -0.217008
v 0.567061 1.617450 -0.000003
v 0.523896 1.617450 0.217001
v 0.400973 1.617450 0.400969
v 0.217005 1.617450 0.523893
v -0.000000 1.617450 0.567057
v -0.217005 1.617450 0.523892
v -0.400973 1.617450 0.400969
v -0.523896 1.617450 0.217001
v -0.567061 1.617450 -0.000004
v -0.523896 1.617450 -0.217008
v -0.400972 1.617450 -0.400976
v -0.217005 1.617450 -0.523899
v 0.000000 1.617450 -0.567064
vn -0.0000 0.8552 -0.5182
vn -0.0000 0.6923 -0.7216
vn -0.0000 0.5933 -0.8050
vn -0.0000 0.4852 -0.8744
vn -0.0000 0.3699 -0.9291
vn -0.0000 0.2495 -0.9684
vn -0.0000 0.1256 -0.9921
vn -0.0000 -0.0000 -1.0000
vn -0.0000 -0.1256 -0.9921
vn -0.0000 -0.2495 -0.9684
vn -0.0000 -0.3699 -0.9291
vn -0.0000 -0.4852 -0.8744
vn -0.0000 -0.5933 -0.8050
vn -0.0000 -0.6923 -0.7216
vn -0.0000 -0.7802 -0.6255
vn -0.0000 -0.8552 -0.5182
vn 0.1983 0.8552 -0.4788
vn 0.2394 0.7802 -0.5779
vn 0.2761 0.6923 -0.6667
vn 0.3081 0.5933 -0.7437
vn 0.3346 0.4852 -0.8078
vn 0.3555 0.3699 -0.8583
vn 0.3706 0.2495 -0.8947
vn 0.3797 0.1256 -0.9166
vn 0.3827 -0.0000 -0.9239
vn 0.3797 -0.1256 -0.9166
vn 0.3706 -0.2495 -0.8947
vn 0.3555 -0.3699 -0.8583
vn 0.3346 -0.4852 -0.8078
vn 0.3081 -0.5933 -0.7437
vn 0.2761 -0.6923 -0.6667
vn 0.2394 -0.7802 -0.5779
vn 0.1983 -0.8552 -0.4788
vn 0.3665 0.8552 -0.3665
vn 0.4423 0.7802 -0.4423
vn 0.5102 0.6923 -0.5102
vn 0.5692 0.5933 -0.5692
vn 0.6183 0.4852 -0.6183
vn 0.6569 0.3699 -0.6569
vn 0.6848 0.2495 -0.6848
vn 0.7015 0.1256 -0.7015
vn 0.7071 -0.0000 -0.7071
vn 0.7015 -0.1256 -0.7015
vn 0.6848 -0.2495 -0.6848
vn 0.6569 -0.3699 -0.6569
vn 0.6183 -0.4852 -0.6183
vn 0.5692 -0.5933 -0.5692
vn 0.5102 -0.6923 -0.5102
vn 0.4423 -0.7803 -0.4423
vn 0.3665 -0.8552 -0.3665
vn 0.4788 0.8552 -0.1983
vn 0.5779 0.7803 -0.2394
vn 0.6667 0.6923 -0.2761
vn 0.7437 0.5933 -0.3081
vn 0.8078 0.4852 -0.3346
vn 0.8583 0.3699 -0.3555
vn 0.8947 0.2495 -0.3706
vn 0.9166 0.1256 -0.3797
vn 0.9239 -0.0000 -0.3827
vn 0.9166 -0.1256 -0.3797
vn 0.8947 -0.2495 -0.3706
vn 0.8583 -0.3699 -0.3555
vn 0.8078 -0.4852 -0.3346
vn 0.7437 -0.5933 -0.3081
vn 0.6667 -0.6923 -0.2761
vn 0.5779 -0.7803 -0.2394
vn 0.4788 -0.8552 -0.1983
vn 0.5182 0.8552 -0.0000
vn 0.6255 0.7802 -0.0000
vn 0.7216 0.6923 -0.0000
vn 0.8050 0.5933 -0.0000
vn 0.8744 0.4852 -0.0000
vn 0.9291 0.3699 -0.0000
vn 0.9684 0.2495 -0.0000
vn 0.9921 0.1256 -0.0000
vn 1.0000 -0.0000 -0.0000
vn 0.9921 -0.1256 -0.0000
vn 0.9684 -0.2495 -0.0000
vn 0.9291 -0.3699 -0.0000
vn 0.8744 -0.4852 -0.0000
vn 0.8050 -0.5933 -0.0000
vn 0.7216 -0.6923 -0.0000
vn 0.6255 -0.7803 -0.0000
vn 0.5182 -0.8552 -0.0000
vn 0.4788 0.8552 0.1983
vn 0.5779 0.7802 0.2394
vn 0.6667 0.6923 0.2761
vn 0.7437 0.5933 0.3081
vn 0.8078 0.4852 0.3346
vn 0.8583 0.3699 0.3555
vn 0.8947 0.2495 0.3706
vn 0.9166 0.1256 0.3797
vn 0.9239 -0.0000 0.3827
vn 0.9166 -0.1256 0.3797
vn 0.8947 -0.2495 0.3706
vn 0.8583 -0.3699 0.3555
vn 0.8078 -0.4852 0.3346
vn 0.7437 -0.5933 0.3081
vn 0.6667 -0.6923 0.2761
vn 0.5779 -0.7802 0.2394
vn 0.4788 -0.8552 0.1983
vn 0.3665 0.8552 0.3665
vn 0.4423 0.7802 0.4423
vn 0.5102 0.6923 0.5102
vn 0.5692 0.5933 0.5692
vn 0.6183 0.4852 0.6183
vn 0.6569 0.3699 0.6569
vn 0.6848 0.2495 0.6848
vn 0.7015 0.1256 0.7015
vn 0.7071 -0.0000 0.7071
vn 0.7015 -0.1256 0.7015
vn 0.6848 -0.2495 0.6848
vn 0.6569 -0.3699 0.6569
vn 0.6183 -0.4852 0.6183
vn 0.5692 -0.5933 0.5692
vn 0.5102 -0.6923 0.5102
vn 0.4423 -0.7803 0.4423
vn 0.3665 -0.8552 0.3665
vn 0.1983 0.8552 0.4788
vn 0.2394 0.7802 0.5779
vn 0.2761 0.6923 0.6667
vn 0.3081 0.5933 0.7437
vn 0.3346 0.4852 0.8078
vn 0.3555 0.3699 0.8583
vn 0.3706 0.2495 0.8947
vn 0.3797 0.1256 0.9166
vn 0.3827 -0.0000 0.9239
vn 0.3797 -0.1256 0.9166
vn 0.3706 -0.2495 0.8947
vn 0.3555 -0.3699 0.8583
vn 0.3346 -0.4852 0.8078
vn 0.3081 -0.5933 0.7437
vn 0.2761 -0.6923 0.6667
vn 0.2394 -0.7803 0.5779
vn 0.1983 -0.8552 0.4788
vn -0.0000 0.8552 0.5182
vn -0.0000 0.7802 0.6255
vn -0.0000 0.6923 0.7216
vn -0.0000 0.5933 0.8050
vn -0.0000 0.4852 0.8744
vn -0.0000 0.3699 0.9291
vn -0.0000 0.2495 0.9684
vn -0.0000 0.1256 0.9921
vn -0.0000 -0.0000 1.0000
vn -0.0000 -0.1256 0.9921
vn -0.0000 -0.2495 0.9684
vn -0.0000 -0.3699 0.9291
vn -0.0000 -0.4852 0.8744
vn -0.0000 -0.5933 0.8050
vn -0.0000 -0.6923 0.7216
vn -0.0000 -0.7802 0.6255
vn -0.0000 -0.8552 0.5182
vn -0.1983 0.8552 0.4788
vn -0.2394 0.7802 0.5779
vn -0.2761 0.6923 0.6667
vn -0.3081 0.5933 0.7437
vn -0.3346 0.4852 0.8078
vn -0.3555 0.3699 0.8583
vn -0.3706 0.2495 0.8947
vn -0.3797 0.1256 0.9166
vn -0.3827 -0.0000 0.9239
vn -0.3797 -0.1256 0.9166
vn -0.3706 -0.2495 0.8947
vn -0.3555 -0.3699 0.8583
vn -0.3346 -0.4852 0.8078
vn -0.3081 -0.5933 0.7437
vn -0.2761 -0.6923 0.6667
vn -0.2394 -0.7802 0.5779
vn -0.1983 -0.8552 0.4788
vn -0.3665 0.8552 0.3665
vn -0.4423 0.7802 0.4423
vn -0.5102 0.6923 0.5102
vn -0.5692 0.5933 0.5692
vn -0.6183 0.4852 0.6183
vn -0.6569 0.3699 0.6569
vn -0.6848 0.2495 0.6848
vn -0.7015 0.1256 0.7015
vn -0.7071 -0.0000 0.7071
vn -0.7015 -0.1256 0.7015
vn -0.6848 -0.2495 0.6848
vn -0.6569 -0.3699 0.6569
vn -0.6183 -0.4852 0.6183
vn -0.5692 -0.5933 0.5692
vn -0.5102 -0.6923 0.5102
vn -0.4423 -0.7802 0.4423
vn -0.3665 -0.8552 0.3665
vn -0.4788 0.8552 0.1983
vn -0.5779 0.7802 0.2394
vn -0.6667 0.6923 0.2761
vn -0.7437 0.5933 0.3081
vn -0.8078 0.4852 0.3346
vn -0.8583 0.3699 0.3555
vn -0.8947 0.2495 0.3706
vn -0.9166 0.1256 0.3797
vn -0.9239 -0.0000 0.3827
vn -0.9166 -0.1256 0.3797
vn -0.8947 -0.2495 0.3706
vn -0.8583 -0.3699 0.3555
vn -0.8078 -0.4852 0.3346
vn -0.7437 -0.5933 0.3081
vn -0.6667 -0.6923 0.2761
vn -0.5779 -0.7802 0.2394
vn -0.4788 -0.8552 0.1983
vn -0.5182 0.8552 -0.0000
vn -0.6255 0.7802 -0.0000
vn -0.7216 0.6923 -0.0000
vn -0.8050 0.5933 -0.0000
vn -0.8744 0.4852 -0.0000
vn -0.9291 0.3699 -0.0000
vn -0.9684 0.2495 -0.0000
vn -0.9921 0.1256 -0.0000
vn -1.0000 -0.0000 -0.0000
vn -0.9921 -0.1256 -0.0000
vn -0.9684 -0.2495 -0.0000
vn -0.9291 -0.3699 -0.0000
vn -0.8744 -0.4852 -0.0000
vn -0.8050 -0.5933 -0.0000
vn -0.7216 -0.6923 -0.0000
vn -0.6255 -0.7802 -0.0000
vn -0.5182 -0.8552 -0.0000
vn -0.4788 0.8552 -0.1983
vn -0.5779 0.7802 -0.2394
vn -0.6667 0.6923 -0.2761
vn -0.7437 0.5933 -0.3081
vn -0.8078 0.4852 -0.3346
vn -0.8583 0.3699 -0.3555
vn -0.8947 0.2495 -0.3706
vn -0.9166 0.1256 -0.3797
vn -0.9239 -0.0000 -0.3827
vn -0.9166 -0.1256 -0.3797
vn -0.8947 -0.2495 -0.3706
vn -0.8583 -0.3699 -0.3555
vn -0.8078 -0.4852 -0.3346
vn -0.7437 -0.5933 -0.3081
vn -0.6667 -0.6923 -0.2761
vn -0.5779 -0.7802 -0.2394
vn -0.4788 -0.8552 -0.1983
vn -0.3665 0.8552 -0.3665
vn -0.4423 0.7802 -0.4423
vn -0.5102 0.6923 -0.5102
vn -0.5692 0.5933 -0.5692
vn -0.6183 0.4852 -0.6183
vn -0.6569 0.3699 -0.6569
vn -0.6848 0.2495 -0.6848
vn -0.7015 0.1256 -0.7015
vn -0.7071 -0.0000 -0.7071
vn -0.7015 -0.1256 -0.7015
vn -0.6848 -0.2495 -0.6848
vn -0.6569 -0.3699 -0.6569
vn -0.6183 -0.4852 -0.6183
vn -0.5692 -0.5933 -0.5692
vn -0.5102 -0.6923 -0.5102
vn -0.4423 -0.7802 -0.4423
vn -0.3665 -0.8552 -0.3665
vn -0.1983 0.8552 -0.4788
vn -0.2394 0.7802 -0.5779
vn -0.2761 0.6923 -0.6667
vn -0.3081 0.5933 -0.7437
vn -0.3346 0.4852 -0.8078
vn -0.3555 0.3699 -0.8583
vn -0.3706 0.2495 -0.8947
vn -0.3797 0.1256 -0.9166
vn -0.3827 -0.0000 -0.9239
vn -0.3797 -0.1256 -0.9166
vn -0.3706 -0.2495 -0.8947
vn -0.3555 -0.3699 -0.8583
vn -0.3346 -0.4852 -0.8078
vn -0.3081 -0.5933 -0.7437
vn -0.2761 -0.6923 -0.6667
vn -0.2394 -0.7802 -0.5779
vn -0.1983 -0.8552 -0.4788
vn -0.0000 0.7802 -0.6255
vn -0.0000 0.0389 -0.9992
vn -0.0000 -0.0389 -0.9992
vn 0.3824 0.0389 -0.9232
vn 0.3824 -0.0389 -0.9232
vn 0.7066 0.0389 -0.7066
vn 0.7066 -0.0389 -0.7066
vn 0.9232 0.0389 -0.3824
vn 0.9232 -0.0389 -0.3824
vn 0.9992 0.0389 -0.0000
vn 0.9992 -0.0389 -0.0000
vn 0.9232 0.0389 0.3824
vn 0.9232 -0.0389 0.3824
vn 0.7066 0.0389 0.7066
vn 0.7066 -0.0389 0.7066
vn 0.3824 0.0389 0.9232
vn 0.3824 -0.0389 0.9232
vn -0.0000 0.0389 0.9992
vn -0.0000 -0.0389 0.9992
vn -0.3824 0.0389 0.9232
vn -0.3824 -0.0389 0.9232
vn -0.7066 0.0389 0.7066
vn -0.7066 -0.0389 0.7066
vn -0.9232 0.0389 0.3824
vn -0.9232 -0.0389 0.3824
vn -0.9992 0.0389 -0.0000
vn -0.9992 -0.0389 -0.0000
vn -0.9232 0.0389 -0.3824
vn -0.9232 -0.0389 -0.3824
vn -0.7066 0.0389 -0.7066
vn -0.7066 -0.0389 -0.7066
vn -0.3824 0.0389 -0.9232
vn -0.3824 -0.0389 -0.9232
vn -0.0000 0.9104 -0.4138
vn 0.1584 0.9104 -0.3823
vn -0.1584 0.9104 -0.3823
vn 0.2926 0.9104 -0.2926
vn 0.3823 0.9104 -0.1584
vn 0.4138 0.9104 -0.0000
vn 0.3823 0.9104 0.1584
vn 0.2926 0.9104 0.2926
vn 0.1584 0.9104 0.3823
vn -0.0000 0.9104 0.4138
vn -0.1584 0.9104 0.3823
vn -0.2926 0.9104 0.2926
vn -0.3823 0.9104 0.1584
vn -0.4138 0.9104 -0.0000
vn -0.3823 0.9104 -0.1584
vn -0.2926 0.9104 -0.2926
vn -0.0000 0.8363 -0.5483
vn 0.2098 0.8363 -0.5065
vn -0.2098 0.8363 -0.5065
vn 0.3877 0.8363 -0.3877
vn 0.5065 0.8363 -0.2098
vn 0.5483 0.8363 -0.0000
vn 0.5065 0.8363 0.2098
vn 0.3877 0.8363 0.3877
vn 0.2098 0.8363 0.5065
vn -0.0000 0.8363 0.5483
vn -0.2098 0.8363 0.5065
vn -0.3877 0.8363 0.3877
vn -0.5065 0.8363 0.2098
vn -0.5483 0.8363 -0.0000
vn -0.5065 0.8363 -0.2098
vn -0.3877 0.8363 -0.3877
vn -0.0000 0.7573 -0.6531
vn 0.2499 0.7573 -0.6034
vn -0.2499 0.7573 -0.6034
vn 0.4618 0.7573 -0.4618
vn 0.6034 0.7573 -0.2499
vn 0.6531 0.7573 -0.0000
vn 0.6034 0.7573 0.2499
vn 0.4618 0.7573 0.4618
vn 0.2499 0.7573 0.6034
vn -0.0000 0.7573 0.6531
vn -0.2499 0.7573 0.6034
vn -0.4618 0.7573 0.4618
vn -0.6034 0.7573 0.2499
vn -0.6531 0.7573 -0.0000
vn -0.6034 0.7573 -0.2499
vn -0.4618 0.7573 -0.4618
vn -0.2858 0.6650 -0.6900
vn -0.0000 0.6650 -0.7468
vn 0.2858 0.6650 -0.6900
vn 0.5281 0.6650 -0.5281
vn 0.6900 0.6650 -0.2858
vn 0.7468 0.6650 -0.0000
vn 0.6900 0.6650 0.2858
vn 0.5281 0.6650 0.5281
vn 0.2858 0.6650 0.6900
vn -0.0000 0.6650 0.7468
vn -0.2858 0.6650 0.6900
vn -0.5281 0.6650 0.5281
vn -0.6900 0.6650 0.2858
vn -0.7468 0.6650 -0.0000
vn -0.6900 0.6650 -0.2858
vn -0.5281 0.6650 -0.5281
vn -0.3168 0.5610 -0.7648
vn -0.0000 0.5610 -0.8278
vn 0.3168 0.5610 -0.7648
vn 0.5853 0.5610 -0.5853
vn 0.7648 0.5610 -0.3168
vn 0.8278 0.5610 -0.0000
vn 0.7648 0.5610 0.3168
vn 0.5853 0.5610 0.5853
vn 0.3168 0.5610 0.7648
vn -0.0000 0.5610 0.8278
vn -0.3168 0.5610 0.7648
vn -0.5853 0.5610 0.5853
vn -0.7648 0.5610 0.3168
vn -0.8278 0.5610 -0.0000
vn -0.7648 0.5610 -0.3168
vn -0.5853 0.5610 -0.5853
vn -0.3423 0.4471 -0.8264
vn -0.0000 0.4471 -0.8945
vn 0.3423 0.4471 -0.8264
vn 0.6325 0.4471 -0.6325
vn 0.8264 0.4471 -0.3423
vn 0.8945 0.4471 -0.0000
vn 0.8264 0.4471 0.3423
vn 0.6325 0.4471 0.6325
vn 0.3423 0.4471 0.8264
vn -0.0000 0.4471 0.8945
vn -0.3423 0.4471 0.8264
vn -0.6325 0.4471 0.6325
vn -0.8264 0.4471 0.3423
vn -0.8945 0.4471 -0.0000
vn -0.8264 0.4471 -0.3423
vn -0.6325 0.4471 -0.6325
vn -0.3619 0.3252 -0.8737
vn -0.0000 0.3252 -0.9456
vn 0.3619 0.3252 -0.8737
vn 0.6687 0.3252 -0.6687
vn 0.8737 0.3252 -0.3619
vn 0.9457 0.3252 -0.0000
vn 0.8737 0.3252 0.3619
vn 0.6687 0.3252 0.6687
vn 0.3619 0.3252 0.8737
vn -0.0000 0.3252 0.9457
vn -0.3619 0.3252 0.8737
vn -0.6687 0.3252 0.6687
vn -0.8737 0.3252 0.3619
vn -0.9457 0.3252 -0.0000
vn -0.8737 0.3252 -0.3619
vn -0.6687 0.3252 -0.6687
vn -0.3751 0.1975 -0.9057
vn -0.0000 0.1975 -0.9803
vn 0.3751 0.1975 -0.9057
vn 0.6932 0.1975 -0.6932
vn 0.9057 0.1975 -0.3751
vn 0.9803 0.1975 -0.0000
vn 0.9057 0.1975 0.3751
vn 0.6932 0.1975 0.6932
vn 0.3751 0.1975 0.9057
vn -0.0000 0.1975 0.9803
vn -0.3751 0.1975 0.9057
vn -0.6932 0.1975 0.6932
vn -0.9057 0.1975 0.3751
vn -0.9803 0.1975 -0.0000
vn -0.9057 0.1975 -0.3751
vn -0.6932 0.1975 -0.6932
vn -0.3818 0.0662 -0.9219
vn -0.0000 0.0662 -0.9978
vn 0.3818 0.0662 -0.9219
vn 0.7056 0.0662 -0.7056
vn 0.9219 0.0662 -0.3818
vn 0.9978 0.0662 -0.0000
vn 0.9219 0.0662 0.3818
vn 0.7056 0.0662 0.7056
vn 0.3818 0.0662 0.9219
vn -0.0000 0.0662 0.9978
vn -0.3818 0.0662 0.9219
vn -0.7056 0.0662 0.7056
vn -0.9219 0.0662 0.3818
vn -0.9978 0.0662 -0.0000
vn -0.9219 0.0662 -0.3818
vn -0.7056 0.0662 -0.7056
vn -0.3818 -0.0662 -0.9219
vn -0.0000 -0.0662 -0.9978
vn 0.3818 -0.0662 -0.9219
vn 0.7056 -0.0662 -0.7056
vn 0.9219 -0.0662 -0.3818
vn 0.9978 -0.0662 -0.0000
vn 0.9219 -0.0662 0.3818
vn 0.7056 -0.0662 0.7056
vn 0.3818 -0.0662 0.9219
vn -0.0000 -0.0662 0.9978
vn -0.3818 -0.0662 0.9219
vn -0.7056 -0.0662 0.7056
vn -0.9219 -0.0662 0.3818
vn -0.9978 -0.0662 -0.0000
vn -0.9219 -0.0662 -0.3818
vn -0.7056 -0.0662 -0.7056
vn -0.3751 -0.1975 -0.9057
vn -0.0000 -0.1975 -0.9803
vn 0.3751 -0.1975 -0.9057
vn 0.6932 -0.1975 -0.6932
vn 0.9057 -0.1975 -0.3751
vn 0.9803 -0.1975 -0.0000
vn 0.9057 -0.1975 0.3751
vn 0.6932 -0.1975 0.6932
vn 0.3751 -0.1975 0.9057
vn -0.0000 -0.1975 0.9803
vn -0.3751 -0.1975 0.9057
vn -0.6932 -0.1975 0.6932
vn -0.9057 -0.1975 0.3751
vn -0.9803 -0.1975 -0.0000
vn -0.9057 -0.1975 -0.3751
vn -0.6932 -0.1975 -0.6932
vn -0.3619 -0.3252 -0.8737
vn -0.0000 -0.3252 -0.9456
vn 0.3619 -0.3252 -0.8737
vn 0.6687 -0.3252 -0.6687
vn 0.8737 -0.3252 -0.3619
vn 0.9457 -0.3252 -0.0000
vn 0.8737 -0.3252 0.3619
vn 0.6687 -0.3252 0.6687
vn 0.3619 -0.3252 0.8737
vn -0.0000 -0.3252 0.9457
vn -0.3619 -0.3252 0.8737
vn -0.6687 -0.3252 0.6687
vn -0.8737 -0.3252 0.3619
vn -0.9457 -0.3252 -0.0000
vn -0.8737 -0.3252 -0.3619
vn -0.6687 -0.3252 -0.6687
vn -0.3423 -0.4471 -0.8264
vn -0.0000 -0.4471 -0.8945
vn 0.3423 -0.4471 -0.8264
vn 0.6325 -0.4471 -0.6325
vn 0.8264 -0.4471 -0.3423
vn 0.8945 -0.4471 -0.0000
vn 0.8264 -0.4471 0.3423
vn 0.6325 -0.4471 0.6325
vn 0.3423 -0.4471 0.8264
vn -0.0000 -0.4471 0.8945
vn -0.3423 -0.4471 0.8264
vn -0.6325 -0.4471 0.6325
vn -0.8264 -0.4471 0.3423
vn -0.8945 -0.4471 -0.0000
vn -0.8264 -0.4471 -0.3423
vn -0.6325 -0.4471 -0.6325
vn -0.3168 -0.5610 -0.7648
vn -0.0000 -0.5610 -0.8278
vn 0.3168 -0.5610 -0.7648
vn 0.5853 -0.5610 -0.5853
vn 0.7648 -0.5610 -0.3168
vn 0.8278 -0.5610 -0.0000
vn 0.7648 -0.5610 0.3168
vn 0.5853 -0.5610 0.5853
vn 0.3168 -0.5610 0.7648
vn -0.0000 -0.5610 0.8278
vn -0.3168 -0.5610 0.7648
vn -0.5853 -0.5610 0.5853
vn -0.7648 -0.5610 0.3168
vn -0.8278 -0.5610 -0.0000
vn -0.7648 -0.5610 -0.3168
vn -0.5853 -0.5610 -0.5853
vn -0.2858 -0.6650 -0.6900
vn -0.0000 -0.6650 -0.7468
vn 0.2858 -0.6650 -0.6900
vn 0.5281 -0.6650 -0.5281
vn 0.6900 -0.6650 -0.2858
vn 0.7468 -0.6650 -0.0000
vn 0.6900 -0.6650 0.2858
vn 0.5281 -0.6650 0.5281
vn 0.2858 -0.6650 0.6900
vn -0.0000 -0.6650 0.7468
vn -0.2858 -0.6650 0.6900
vn -0.5281 -0.6650 0.5281
vn -0.6900 -0.6650 0.2858
vn -0.7468 -0.6650 -0.0000
vn -0.6900 -0.6650 -0.2858
vn -0.5281 -0.6650 -0.5281
vn -0.2499 -0.7573 -0.6034
vn -0.0000 -0.7573 -0.6531
vn 0.2499 -0.7573 -0.6034
vn 0.4618 -0.7573 -0.4618
vn 0.6034 -0.7573 -0.2499
vn 0.6531 -0.7573 -0.0000
vn 0.6034 -0.7573 0.2499
vn 0.4618 -0.7573 0.4618
vn 0.2499 -0.7573 0.6034
vn -0.0000 -0.7573 0.6531
vn -0.2499 -0.7573 0.6033
vn -0.4618 -0.7573 0.4618
vn -0.6034 -0.7573 0.2499
vn -0.6531 -0.7573 -0.0000
vn -0.6033 -0.7573 -0.2499
vn -0.4618 -0.7573 -0.4618
vn -0.2098 -0.8363 -0.5065
vn -0.0000 -0.8363 -0.5483
vn 0.2098 -0.8363 -0.5065
vn 0.3877 -0.8363 -0.3877
vn 0.5065 -0.8363 -0.2098
vn 0.5483 -0.8363 -0.0000
vn 0.5065 -0.8363 0.2098
vn 0.3877 -0.8363 0.3877
vn 0.2098 -0.8363 0.5065
vn -0.0000 -0.8363 0.5483
vn -0.2098 -0.8363 0.5065
vn -0.3877 -0.8363 0.3877
vn -0.5065 -0.8363 0.2098
vn -0.5483 -0.8363 -0.0000
vn -0.5065 -0.8363 -0.2098
vn -0.3877 -0.8363 -0.3877
vn -0.1584 -0.9104 -0.3823
vn -0.0000 -0.9104 -0.4138
vn 0.1584 -0.9104 -0.3823
vn 0.2926 -0.9104 -0.2926
vn 0.3823 -0.9104 -0.1584
vn 0.4138 -0.9104 -0.0000
vn 0.3823 -0.9104 0.1584
vn 0.2926 -0.9104 0.2926
vn 0.1584 -0.9104 0.3823
vn -0.0000 -0.9104 0.4138
vn -0.1584 -0.9104 0.3823
vn -0.2926 -0.9104 0.2926
vn -0.3823 -0.9104 0.1584
vn -0.4138 -0.9104 -0.0000
vn -0.3823 -0.9104 -0.1584
vn -0.2926 -0.9104 -0.2926
vn 0.4647 -0.7538 -0.4647
vn 0.2515 -0.7538 -0.6071
vn -0.0000 -0.7538 -0.6572
vn -0.2515 -0.7538 -0.6071
vn -0.4647 -0.7538 -0.4647
vn -0.6071 -0.7538 -0.2515
vn -0.6572 -0.7538 -0.0000
vn -0.6071 -0.7538 0.2515
vn -0.4647 -0.7538 0.4647
vn -0.2515 -0.7538 0.6071
vn -0.0000 -0.7538 0.6572
vn -0.2515 0.7538 0.6071
vn -0.4647 0.7538 0.4647
vn -0.6071 0.7538 0.2515
vn -0.6571 0.7538 -0.0000
vn -0.6071 0.7538 -0.2515
vn -0.4647 0.7538 -0.4647
vn -0.2515 0.7538 -0.6071
vn -0.0000 0.7538 -0.6571
vn 0.2515 0.7538 -0.6071
vn 0.4647 0.7538 -0.4647
vn 0.6071 0.7538 -0.2515
vn 0.6571 0.7538 -0.0000
vn 0.6071 0.7538 0.2515
vn 0.4647 0.7538 0.4647
vn 0.2515 0.7538 0.6071
vn -0.0000 0.7538 0.6571
vn 0.6071 -0.7538 -0.2515
vn 0.6572 -0.7538 -0.0000
vn 0.6071 -0.7538 0.2515
vn 0.4647 -0.7538 0.4647
vn 0.2515 -0.7538 0.6071
vn -0.0000 -0.4598 -0.8880
vn -0.0000 0.4598 -0.8880
vn 0.3398 -0.4598 -0.8204
vn 0.3398 0.4598 -0.8204
vn 0.6279 -0.4598 -0.6279
vn 0.6279 0.4598 -0.6279
vn 0.8204 -0.4598 -0.3398
vn 0.8204 0.4599 -0.3398
vn 0.8880 -0.4599 -0.0000
vn 0.8880 0.4599 -0.0000
vn 0.8204 -0.4599 0.3398
vn 0.8204 0.4599 0.3398
vn 0.6279 -0.4599 0.6279
vn 0.6279 0.4599 0.6279
vn 0.3398 -0.4599 0.8204
vn 0.3398 0.4599 0.8204
vn -0.0000 -0.4599 0.8880
vn -0.0000 0.4599 0.8880
vn -0.3398 -0.4599 0.8204
vn -0.3398 0.4599 0.8204
vn -0.6279 -0.4599 0.6279
vn -0.6279 0.4599 0.6279
vn -0.8204 -0.4599 0.3398
vn -0.8204 0.4599 0.3398
vn -0.8880 -0.4599 -0.0000
vn -0.8880 0.4599 -0.0000
vn -0.8204 -0.4598 -0.3398
vn -0.8204 0.4599 -0.3398
vn -0.6279 -0.4598 -0.6279
vn -0.6279 0.4598 -0.6279
vn -0.3398 -0.4598 -0.8204
vn -0.3398 0.4598 -0.8204
vn 0.2856 0.6657 -0.6894
vn -0.0000 0.6657 -0.7462
vn 0.5276 0.6657 -0.5276
vn 0.6894 0.6657 -0.2856
vn 0.7462 0.6657 -0.0000
vn 0.6894 0.6657 0.2856
vn 0.5276 0.6657 0.5276
vn 0.2856 0.6657 0.6894
vn -0.0000 0.6657 0.7462
vn -0.2856 0.6657 0.6894
vn -0.5276 0.6657 0.5276
vn -0.6894 0.6657 0.2856
vn -0.7462 0.6657 -0.0000
vn -0.6894 0.6657 -0.2856
vn -0.5276 0.6657 -0.5276
vn -0.2856 0.6657 -0.6894
vn -0.5276 -0.6657 0.5276
vn -0.2856 -0.6657 0.6894
vn -0.0000 -0.6657 0.7462
vn 0.2856 -0.6657 0.6894
vn 0.5276 -0.6657 0.5276
vn 0.6894 -0.6657 0.2856
vn 0.7462 -0.6657 -0.0000
vn 0.6894 -0.6657 -0.2856
vn 0.5276 -0.6657 -0.5276
vn 0.2856 -0.6657 -0.6894
vn -0.0000 -0.6657 -0.7462
vn -0.6894 -0.6657 0.2856
vn -0.7462 -0.6657 -0.0000
vn -0.6894 -0.6657 -0.2856
vn -0.5276 -0.6657 -0.5276
vn -0.2856 -0.6657 -0.6894
vt 0.987994 0.712021
vt 0.987994 0.734482
vt 0.926993 0.734482
vt 0.926993 0.712021
vt 0.072977 0.276357
vt 0.072977 0.297676
vt 0.011975 0.297676
vt 0.011975 0.276357
vt 0.072977 0.581459
vt 0.072977 0.603943
vt 0.011975 0.603943
vt 0.011975 0.581459
vt 0.072977 0.232798
vt 0.072977 0.253964
vt 0.011975 0.253964
vt 0.011975 0.232798
vt 0.072977 0.537900
vt 0.072977 0.560292
vt 0.011975 0.560292
vt 0.011975 0.537900
vt 0.072977 0.189259
vt 0.072977 0.210314
vt 0.011975 0.210314
vt 0.011975 0.189259
vt 0.072977 0.494321
vt 0.072977 0.516581
vt 0.011975 0.516581
vt 0.011975 0.494321
vt 0.072977 0.145739
vt 0.072977 0.166732
vt 0.011975 0.166732
vt 0.011975 0.145739
vt 0.072977 0.450729
vt 0.072977 0.472821
vt 0.011975 0.472821
vt 0.011975 0.450729
vt 0.987994 0.755512
vt 0.987994 0.777960
vt 0.926993 0.777960
vt 0.926993 0.755512
vt 0.072977 0.102236
vt 0.072977 0.123220
vt 0.011975 0.123220
vt 0.011975 0.102236
vt 0.072977 0.407128
vt 0.072977 0.429029
vt 0.011975 0.429029
vt 0.011975 0.407128
vt 0.072977 0.755512
vt 0.072977 0.777960
vt 0.011975 0.777960
vt 0.011975 0.755512
vt 0.987994 0.058745
vt 0.987994 0.079775
vt 0.926993 0.079775
vt 0.926993 0.058745
vt 0.072977 0.363528
vt 0.072977 0.385228
vt 0.011975 0.385228
vt 0.011975 0.363528
vt 0.072977 0.712021
vt 0.072977 0.734482
vt 0.011975 0.734482
vt 0.011975 0.712021
vt 0.926993 0.363528
vt 0.926993 0.385228
vt 0.865992 0.385228
vt 0.865992 0.363528
vt 0.926993 0.668518
vt 0.926993 0.691037
vt 0.865992 0.691037
vt 0.865992 0.668518
vt 0.926993 0.319935
vt 0.926993 0.341436
vt 0.865992 0.341436
vt 0.865992 0.319935
vt 0.926993 0.624998
vt 0.926993 0.647525
vt 0.865992 0.647525
vt 0.865992 0.624998
vt 0.926993 0.276357
vt 0.926993 0.297676
vt 0.865992 0.297676
vt 0.865992 0.276357
vt 0.926993 0.581459
vt 0.926993 0.603943
vt 0.865992 0.603943
vt 0.865992 0.581459
vt 0.926993 0.232798
vt 0.926993 0.253964
vt 0.865992 0.253964
vt 0.865992 0.232798
vt 0.926993 0.537900
vt 0.926993 0.560292
vt 0.865992 0.560292
vt 0.865992 0.537900
vt 0.926993 0.189259
vt 0.926993 0.210314
vt 0.865992 0.210314
vt 0.865992 0.189259
vt 0.926993 0.494321
vt 0.926993 0.516581
vt 0.865992 0.516581
vt 0.865992 0.494321
vt 0.926993 0.145739
vt 0.926993 0.166732
vt 0.865992 0.166732
vt 0.865992 0.145739
vt 0.926993 0.450729
vt 0.926993 0.472821
vt 0.865992 0.472821
vt 0.865992 0.450729
vt 0.865992 0.777960
vt 0.865992 0.755512
vt 0.804990 0.603943
vt 0.804990 0.581459
vt 0.804990 0.253964
vt 0.804990 0.232798
vt 0.804990 0.560292
vt 0.804990 0.537900
vt 0.804990 0.210314
vt 0.804990 0.189259
vt 0.804990 0.516581
vt 0.804990 0.494321
vt 0.804990 0.166732
vt 0.804990 0.145739
vt 0.804990 0.472821
vt 0.804990 0.450729
vt 0.804990 0.777960
vt 0.804990 0.755512
vt 0.865992 0.102236
vt 0.865992 0.123220
vt 0.804990 0.123220
vt 0.804990 0.102236
vt 0.865992 0.407128
vt 0.865992 0.429029
vt 0.804990 0.429029
vt 0.804990 0.407128
vt 0.865992 0.712021
vt 0.865992 0.734482
vt 0.804990 0.734482
vt 0.804990 0.712021
vt 0.804990 0.385228
vt 0.804990 0.363528
vt 0.804990 0.691037
vt 0.804990 0.668518
vt 0.804990 0.341436
vt 0.804990 0.319935
vt 0.743989 0.472821
vt 0.743989 0.450729
vt 0.743989 0.777960
vt 0.743989 0.755512
vt 0.743989 0.123220
vt 0.743989 0.102236
vt 0.743989 0.429029
vt 0.743989 0.407128
vt 0.743989 0.734482
vt 0.743989 0.712021
vt 0.743989 0.385228
vt 0.743989 0.363528
vt 0.743989 0.691037
vt 0.743989 0.668518
vt 0.743989 0.341436
vt 0.743989 0.319935
vt 0.804990 0.624998
vt 0.804990 0.647525
vt 0.743989 0.647525
vt 0.743989 0.624998
vt 0.804990 0.276357
vt 0.804990 0.297676
vt 0.743989 0.297676
vt 0.743989 0.276357
vt 0.743989 0.603943
vt 0.743989 0.581459
vt 0.743989 0.253964
vt 0.743989 0.232798
vt 0.743989 0.560292
vt 0.743989 0.537900
vt 0.743989 0.210314
vt 0.743989 0.189259
vt 0.682988 0.341436
vt 0.682988 0.319935
vt 0.682988 0.647525
vt 0.682988 0.624998
vt 0.682988 0.297676
vt 0.682988 0.276357
vt 0.682988 0.603943
vt 0.682988 0.581459
vt 0.682988 0.253964
vt 0.682988 0.232798
vt 0.682988 0.560292
vt 0.682988 0.537900
vt 0.682988 0.210314
vt 0.682988 0.189259
vt 0.743989 0.494321
vt 0.743989 0.516581
vt 0.682988 0.516581
vt 0.682988 0.494321
vt 0.743989 0.145739
vt 0.743989 0.166732
vt 0.682988 0.166732
vt 0.682988 0.145739
vt 0.682988 0.472821
vt 0.682988 0.450729
vt 0.682988 0.777960
vt 0.682988 0.755512
vt 0.682988 0.123220
vt 0.682988 0.102236
vt 0.682988 0.429029
vt 0.682988 0.407128
vt 0.682988 0.734482
vt 0.682988 0.712021
vt 0.621987 0.560292
vt 0.621987 0.537900
vt 0.621987 0.210314
vt 0.621987 0.189259
vt 0.621987 0.516581
vt 0.621987 0.494321
vt 0.621987 0.166732
vt 0.621987 0.145739
vt 0.621987 0.472821
vt 0.621987 0.450729
vt 0.621987 0.777960
vt 0.621987 0.755512
vt 0.621987 0.123220
vt 0.621987 0.102236
vt 0.621987 0.429029
vt 0.621987 0.407128
vt 0.621987 0.734482
vt 0.621987 0.712021
vt 0.682988 0.363528
vt 0.682988 0.385228
vt 0.621987 0.385228
vt 0.621987 0.363528
vt 0.682988 0.668518
vt 0.682988 0.691037
vt 0.621987 0.691037
vt 0.621987 0.668518
vt 0.621987 0.341436
vt 0.621987 0.319935
vt 0.621987 0.647525
vt 0.621987 0.624998
vt 0.621987 0.297676
vt 0.621987 0.276357
vt 0.560986 0.429029
vt 0.560986 0.407128
vt 0.560986 0.734482
vt 0.560986 0.712021
vt 0.560986 0.385228
vt 0.560986 0.363528
vt 0.560986 0.691037
vt 0.560986 0.668518
vt 0.560986 0.341436
vt 0.560986 0.319935
vt 0.560986 0.647525
vt 0.560986 0.624998
vt 0.560986 0.297676
vt 0.560986 0.276357
vt 0.621987 0.581459
vt 0.621987 0.603943
vt 0.560986 0.603943
vt 0.560986 0.581459
vt 0.621987 0.232798
vt 0.621987 0.253964
vt 0.560986 0.253964
vt 0.560986 0.232798
vt 0.560986 0.560292
vt 0.560986 0.537900
vt 0.560986 0.210314
vt 0.560986 0.189259
vt 0.560986 0.516581
vt 0.560986 0.494321
vt 0.560986 0.166732
vt 0.560986 0.145739
vt 0.621987 0.058745
vt 0.560986 0.058745
vt 0.560986 0.036296
vt 0.621987 0.036296
vt 0.499985 0.297676
vt 0.499985 0.276357
vt 0.499985 0.603943
vt 0.499985 0.581459
vt 0.499985 0.253964
vt 0.499985 0.232798
vt 0.499985 0.560292
vt 0.499985 0.537900
vt 0.499985 0.210314
vt 0.499985 0.189259
vt 0.499985 0.516581
vt 0.499985 0.494321
vt 0.499985 0.166732
vt 0.499985 0.145739
vt 0.560986 0.450729
vt 0.560986 0.472821
vt 0.499985 0.472821
vt 0.499985 0.450729
vt 0.560986 0.755512
vt 0.560986 0.777960
vt 0.499985 0.777960
vt 0.499985 0.755512
vt 0.560986 0.102236
vt 0.560986 0.123220
vt 0.499985 0.123220
vt 0.499985 0.102236
vt 0.499985 0.429029
vt 0.499985 0.407128
vt 0.499985 0.734482
vt 0.499985 0.712021
vt 0.499985 0.385228
vt 0.499985 0.363528
vt 0.499985 0.691037
vt 0.499985 0.668518
vt 0.438983 0.516581
vt 0.438983 0.494321
vt 0.438983 0.166732
vt 0.438983 0.145739
vt 0.438983 0.472821
vt 0.438983 0.450729
vt 0.438983 0.777960
vt 0.438983 0.755512
vt 0.438983 0.123220
vt 0.438983 0.102236
vt 0.438983 0.429029
vt 0.438983 0.407128
vt 0.438983 0.734482
vt 0.438983 0.712021
vt 0.438983 0.385228
vt 0.438983 0.363528
vt 0.438983 0.691037
vt 0.438983 0.668518
vt 0.499985 0.319935
vt 0.499985 0.341436
vt 0.438983 0.341436
vt 0.438983 0.319935
vt 0.499985 0.624998
vt 0.499985 0.647525
vt 0.438983 0.647525
vt 0.438983 0.624998
vt 0.438983 0.297676
vt 0.438983 0.276357
vt 0.438983 0.603943
vt 0.438983 0.581459
vt 0.438983 0.253964
vt 0.438983 0.232798
vt 0.377982 0.385228
vt 0.377982 0.363528
vt 0.377982 0.691037
vt 0.377982 0.668518
vt 0.377982 0.341436
vt 0.377982 0.319935
vt 0.377982 0.647525
vt 0.377982 0.624998
vt 0.377982 0.297676
vt 0.377982 0.276357
vt 0.377982 0.603943
vt 0.377982 0.581459
vt 0.377982 0.253964
vt 0.377982 0.232798
vt 0.438983 0.537900
vt 0.438983 0.560292
vt 0.377982 0.560292
vt 0.377982 0.537900
vt 0.438983 0.189259
vt 0.438983 0.210314
vt 0.377982 0.210314
vt 0.377982 0.189259
vt 0.377982 0.516581
vt 0.377982 0.494321
vt 0.377982 0.166732
vt 0.377982 0.145739
vt 0.377982 0.472821
vt 0.377982 0.450729
vt 0.377982 0.777960
vt 0.377982 0.755512
vt 0.377982 0.123220
vt 0.377982 0.102236
vt 0.438983 0.058745
vt 0.438983 0.079775
vt 0.377982 0.079775
vt 0.377982 0.058745
vt 0.316981 0.253964
vt 0.316981 0.232798
vt 0.316981 0.560292
vt 0.316981 0.537900
vt 0.316981 0.210314
vt 0.316981 0.189259
vt 0.316981 0.516581
vt 0.316981 0.494321
vt 0.804990 0.801847
vt 0.743989 0.801847
vt 0.316981 0.166732
vt 0.316981 0.145739
vt 0.316981 0.472821
vt 0.316981 0.450729
vt 0.316981 0.777960
vt 0.316981 0.755512
vt 0.316981 0.123220
vt 0.316981 0.102236
vt 0.377982 0.407128
vt 0.377982 0.429029
vt 0.316981 0.429029
vt 0.316981 0.407128
vt 0.377982 0.712021
vt 0.377982 0.734482
vt 0.316981 0.734482
vt 0.316981 0.712021
vt 0.316981 0.385228
vt 0.316981 0.363528
vt 0.316981 0.691037
vt 0.316981 0.668518
vt 0.316981 0.341436
vt 0.316981 0.319935
vt 0.316981 0.647525
vt 0.316981 0.624998
vt 0.316981 0.079775
vt 0.316981 0.058745
vt 0.255980 0.472821
vt 0.255980 0.450729
vt 0.255980 0.777960
vt 0.255980 0.755512
vt 0.255980 0.123220
vt 0.255980 0.102236
vt 0.255980 0.429029
vt 0.255980 0.407128
vt 0.255980 0.734482
vt 0.255980 0.712021
vt 0.255980 0.385228
vt 0.255980 0.363528
vt 0.255980 0.691037
vt 0.255980 0.668518
vt 0.255980 0.341436
vt 0.255980 0.319935
vt 0.255980 0.647525
vt 0.255980 0.624998
vt 0.804990 0.058745
vt 0.804990 0.079775
vt 0.743989 0.079775
vt 0.743989 0.058745
vt 0.316981 0.276357
vt 0.316981 0.297676
vt 0.255980 0.297676
vt 0.255980 0.276357
vt 0.316981 0.581459
vt 0.316981 0.603943
vt 0.255980 0.603943
vt 0.255980 0.581459
vt 0.621987 0.079775
vt 0.560986 0.079775
vt 0.865992 0.801847
vt 0.255980 0.253964
vt 0.255980 0.232798
vt 0.255980 0.560292
vt 0.255980 0.537900
vt 0.255980 0.079775
vt 0.255980 0.058745
vt 0.926993 0.801847
vt 0.255980 0.210314
vt 0.255980 0.189259
vt 0.682988 0.801847
vt 0.621987 0.801847
vt 0.194979 0.341436
vt 0.194979 0.319935
vt 0.194979 0.647525
vt 0.194979 0.624998
vt 0.194979 0.297676
vt 0.194979 0.276357
vt 0.194979 0.603943
vt 0.194979 0.581459
vt 0.194979 0.253964
vt 0.194979 0.232798
vt 0.194979 0.560292
vt 0.194979 0.537900
vt 0.560986 0.801847
vt 0.499985 0.801847
vt 0.194979 0.210314
vt 0.194979 0.189259
vt 0.255980 0.494321
vt 0.255980 0.516581
vt 0.194979 0.516581
vt 0.194979 0.494321
vt 0.316981 0.801847
vt 0.255980 0.801847
vt 0.255980 0.145739
vt 0.255980 0.166732
vt 0.194979 0.166732
vt 0.194979 0.145739
vt 0.194979 0.472821
vt 0.194979 0.450729
vt 0.194979 0.777960
vt 0.194979 0.755512
vt 0.194979 0.123220
vt 0.194979 0.102236
vt 0.194979 0.429029
vt 0.194979 0.407128
vt 0.194979 0.734482
vt 0.194979 0.712021
vt 0.194979 0.058745
vt 0.194979 0.079775
vt 0.133978 0.079775
vt 0.133978 0.058745
vt 0.072977 0.058745
vt 0.072977 0.079775
vt 0.011975 0.079775
vt 0.011975 0.058745
vt 0.133978 0.210314
vt 0.133978 0.189259
vt 0.133978 0.516581
vt 0.133978 0.494321
vt 0.377982 0.801847
vt 0.133978 0.166732
vt 0.133978 0.145739
vt 0.133978 0.472821
vt 0.133978 0.450729
vt 0.133978 0.777960
vt 0.133978 0.755512
vt 0.133978 0.123220
vt 0.133978 0.102236
vt 0.133978 0.429029
vt 0.133978 0.407128
vt 0.133978 0.734482
vt 0.133978 0.712021
vt 0.194979 0.363528
vt 0.194979 0.385228
vt 0.133978 0.385228
vt 0.133978 0.363528
vt 0.194979 0.668518
vt 0.194979 0.691037
vt 0.133978 0.691037
vt 0.133978 0.668518
vt 0.133978 0.341436
vt 0.133978 0.319935
vt 0.133978 0.647525
vt 0.133978 0.624998
vt 0.133978 0.297676
vt 0.133978 0.276357
vt 0.133978 0.603943
vt 0.133978 0.581459
vt 0.865992 0.058745
vt 0.865992 0.079775
vt 0.438983 0.801847
vt 0.072977 0.691037
vt 0.072977 0.668518
vt 0.072977 0.341436
vt 0.072977 0.319935
vt 0.072977 0.647525
vt 0.072977 0.624998
vt 0.499985 0.079775
vt 0.499985 0.058745
vt 0.682988 0.058745
vt 0.682988 0.079775
vt 0.194979 0.801847
vt 0.133978 0.232798
vt 0.133978 0.253964
vt 0.133978 0.537900
vt 0.133978 0.560292
vt 0.133978 0.801847
vt 0.072977 0.801847
vt 0.011975 0.801847
vt 0.072977 0.036296
vt 0.133978 0.036296
vt 0.987994 0.581459
vt 0.987994 0.560292
vt 0.987994 0.624998
vt 0.987994 0.647525
vt 0.987994 0.276357
vt 0.987994 0.297676
vt 0.987994 0.603943
vt 0.987994 0.232798
vt 0.987994 0.253964
vt 0.987994 0.537900
vt 0.987994 0.189259
vt 0.987994 0.210314
vt 0.987994 0.494321
vt 0.987994 0.516581
vt 0.987994 0.145739
vt 0.987994 0.166732
vt 0.987994 0.450729
vt 0.987994 0.472821
vt 0.011975 0.691037
vt 0.011975 0.668518
vt 0.987994 0.102236
vt 0.987994 0.123220
vt 0.926993 0.123220
vt 0.926993 0.102236
vt 0.987994 0.407128
vt 0.987994 0.429029
vt 0.926993 0.429029
vt 0.926993 0.407128
vt 0.987994 0.363528
vt 0.987994 0.385228
vt 0.987994 0.668518
vt 0.987994 0.691037
vt 0.987994 0.319935
vt 0.987994 0.341436
vt 0.926993 0.036296
vt 0.987994 0.036296
vt 0.865992 0.036296
vt 0.804990 0.036296
vt 0.743989 0.036296
vt 0.682988 0.036296
vt 0.499985 0.036296
vt 0.438983 0.036296
vt 0.377982 0.036296
vt 0.316981 0.036296
vt 0.255980 0.036296
vt 0.194979 0.036296
vt 0.011975 0.341436
vt 0.011975 0.319935
vt 0.011975 0.647525
vt 0.011975 0.624998
vt 0.011975 0.036296
vt 0.865992 0.823128
vt 0.804990 0.823128
vt 0.621987 0.823128
vt 0.560986 0.823128
vt 0.072977 0.823128
vt 0.011975 0.823128
vt 0.011975 0.801847
vt 0.072977 0.801847
vt 0.499985 0.823128
vt 0.316981 0.823128
vt 0.255980 0.823128
vt 0.194979 0.823128
vt 0.743989 0.823128
vt 0.438983 0.823128
vt 0.438983 0.801847
vt 0.682988 0.823128
vt 0.987994 0.801847
vt 0.499985 0.012410
vt 0.438983 0.012410
vt 0.926993 0.012410
vt 0.865992 0.012410
vt 0.255980 0.012410
vt 0.194979 0.012410
vt 0.682988 0.012410
vt 0.621987 0.012410
vt 0.560986 0.012410
vt 0.804990 0.012410
vt 0.743989 0.012410
vt 0.133978 0.012410
vt 0.072977 0.012410
vt 0.011975 0.012410
vt 0.377982 0.012410
vt 0.316981 0.012410
vt 0.987994 0.012410
vt 0.926993 0.823128
vt 0.926993 0.801847
vt 0.133978 0.823128
vt 0.377982 0.823128
vt 0.987994 0.823128
vt 0.987994 0.801847
vt 0.865992 0.919595
vt 0.926993 0.919595
vt 0.926993 0.991188
vt 0.865992 0.991188
vt 0.072977 0.904210
vt 0.011975 0.904210
vt 0.682988 0.904210
vt 0.743989 0.904210
vt 0.743989 0.919595
vt 0.682988 0.919595
vt 0.072977 0.919595
vt 0.011975 0.919595
vt 0.621987 0.904210
vt 0.499985 0.904210
vt 0.438983 0.904210
vt 0.621987 0.919595
vt 0.133978 0.904210
vt 0.133978 0.919595
vt 0.560986 0.904210
vt 0.560986 0.919595
vt 0.194979 0.904210
vt 0.194979 0.919595
vt 0.072977 0.991188
vt 0.011975 0.991188
vt 0.377982 0.904210
vt 0.255980 0.904210
vt 0.255980 0.919595
vt 0.987994 0.919595
vt 0.987994 0.991188
vt 0.316981 0.904210
vt 0.316981 0.919595
vt 0.377982 0.919595
vt 0.377982 0.991188
vt 0.316981 0.991188
vt 0.499985 0.919595
vt 0.438983 0.904210
vt 0.438983 0.919595
vt 0.438983 0.919595
vt 0.255980 0.991188
vt 0.194979 0.991188
vt 0.804990 0.919595
vt 0.804990 0.991188
vt 0.743989 0.991188
vt 0.682988 0.991188
vt 0.621987 0.991188
vt 0.560986 0.991188
vt 0.499985 0.991188
vt 0.133978 0.991188
vt 0.133978 0.904210
vt 0.133978 0.919595
vt 0.804990 0.904210
vt 0.865992 0.904209
vt 0.072977 0.904210
vt 0.072977 0.919595
vt 0.926993 0.904209
vt 0.011975 0.904210
vt 0.011975 0.919595
vt 0.987994 0.904209
vt 0.926993 0.823128
vt 0.987994 0.823128
vt 0.987994 0.904210
vt 0.926993 0.904210
vt 0.865992 0.904210
vt 0.926993 0.919595
vt 0.865992 0.919595
vt 0.438983 0.823128
vt 0.072977 0.823128
vt 0.011975 0.823128
vt 0.438983 0.991188
vt 0.072977 0.991188
vt 0.011975 0.991188
vt 0.926993 0.991188
vt 0.987994 0.919595
vt 0.987994 0.991188
s 1
usemtl sphrere_paperLantern
f 272/1/272 321/2/321 322/3/322 18/4/18
f 266/5/266 481/6/481 482/7/482 11/8/11
f 259/9/259 369/10/369 370/11/370 4/12/4
f 267/13/267 497/14/497 498/15/498 12/16/12
f 260/17/260 385/18/385 386/19/386 5/20/5
f 268/21/268 513/22/513 514/23/514 13/24/13
f 261/25/261 401/26/401 402/27/402 6/28/6
f 269/29/269 529/30/529 530/31/530 14/32/14
f 262/33/262 417/34/417 418/35/418 7/36/7
f 1/37/1 305/38/305 306/39/306 17/40/17
f 270/41/270 545/42/545 546/43/546 15/44/15
f 263/45/263 433/46/433 434/47/434 8/48/8
f 255/49/255 307/50/307 305/51/305 1/52/1
f 16/53/16 562/54/562 563/55/563 33/56/33
f 264/57/264 449/58/449 450/59/450 9/60/9
f 256/61/256 323/62/323 321/63/321 272/64/272
f 259/9/259 4/12/4 386/19/386 385/18/385
f 26/65/26 451/66/451 452/67/452 43/68/43
f 19/69/19 338/70/338 340/71/340 36/72/36
f 27/73/27 467/74/467 468/75/468 44/76/44
f 20/77/20 355/78/355 356/79/356 37/80/37
f 28/81/28 483/82/483 484/83/484 45/84/45
f 21/85/21 371/86/371 372/87/372 38/88/38
f 29/89/29 499/90/499 500/91/500 46/92/46
f 22/93/22 387/94/387 388/95/388 39/96/39
f 30/97/30 515/98/515 516/99/516 47/100/47
f 23/101/23 403/102/403 404/103/404 40/104/40
f 31/105/31 531/106/531 532/107/532 48/108/48
f 24/109/24 419/110/419 420/111/420 41/112/41
f 17/40/17 306/39/306 308/113/308 34/114/34
f 26/65/26 43/68/43 468/75/468 467/74/467
f 19/69/19 36/72/36 356/79/356 355/78/355
f 27/73/27 44/76/44 484/83/484 483/82/483
f 38/88/38 372/87/372 373/115/373 55/116/55
f 46/92/46 500/91/500 501/117/501 63/118/63
f 39/96/39 388/95/388 389/119/389 56/120/56
f 47/100/47 516/99/516 517/121/517 64/122/64
f 40/104/40 404/103/404 405/123/405 57/124/57
f 48/108/48 532/107/532 533/125/533 65/126/65
f 41/112/41 420/111/420 421/127/421 58/128/58
f 34/114/34 308/113/308 309/129/309 51/130/51
f 49/131/49 548/132/548 549/133/549 66/134/66
f 42/135/42 436/136/436 437/137/437 59/138/59
f 35/139/35 324/140/324 325/141/325 52/142/52
f 43/68/43 452/67/452 453/143/453 60/144/60
f 36/72/36 340/71/340 341/145/341 53/146/53
f 44/76/44 468/75/468 469/147/469 61/148/61
f 46/92/46 63/118/63 517/121/517 516/99/516
f 39/96/39 56/120/56 405/123/405 404/103/404
f 58/128/58 421/127/421 422/149/422 75/150/75
f 51/130/51 309/129/309 310/151/310 68/152/68
f 66/134/66 549/133/549 550/153/550 83/154/83
f 59/138/59 437/137/437 438/155/438 76/156/76
f 52/142/52 325/141/325 326/157/326 69/158/69
f 60/144/60 453/143/453 454/159/454 77/160/77
f 53/146/53 341/145/341 342/161/342 70/162/70
f 61/148/61 469/147/469 470/163/470 78/164/78
f 54/165/54 357/166/357 358/167/358 71/168/71
f 62/169/62 485/170/485 486/171/486 79/172/79
f 55/116/55 373/115/373 374/173/374 72/174/72
f 63/118/63 501/117/501 502/175/502 80/176/80
f 56/120/56 389/119/389 390/177/390 73/178/73
f 64/122/64 517/121/517 518/179/518 81/180/81
f 51/130/51 68/152/68 326/157/326 325/141/325
f 59/138/59 76/156/76 454/159/454 453/143/453
f 78/164/78 470/163/470 471/181/471 95/182/95
f 71/168/71 358/167/358 359/183/359 88/184/88
f 79/172/79 486/171/486 487/185/487 96/186/96
f 72/174/72 374/173/374 375/187/375 89/188/89
f 80/176/80 502/175/502 503/189/503 97/190/97
f 73/178/73 390/177/390 391/191/391 90/192/90
f 81/180/81 518/179/518 519/193/519 98/194/98
f 74/195/74 406/196/406 407/197/407 91/198/91
f 82/199/82 534/200/534 535/201/535 99/202/99
f 75/150/75 422/149/422 423/203/423 92/204/92
f 68/152/68 310/151/310 311/205/311 85/206/85
f 83/154/83 550/153/550 551/207/551 100/208/100
f 76/156/76 438/155/438 439/209/439 93/210/93
f 69/158/69 326/157/326 327/211/327 86/212/86
f 71/168/71 88/184/88 375/187/375 374/173/374
f 79/172/79 96/186/96 503/189/503 502/175/502
f 90/192/90 391/191/391 392/213/392 107/214/107
f 98/194/98 519/193/519 520/215/520 115/216/115
f 91/198/91 407/197/407 408/217/408 108/218/108
f 99/202/99 535/201/535 536/219/536 116/220/116
f 92/204/92 423/203/423 424/221/424 109/222/109
f 85/206/85 311/205/311 312/223/312 102/224/102
f 100/208/100 551/207/551 552/225/552 117/226/117
f 93/210/93 439/209/439 440/227/440 110/228/110
f 86/212/86 327/211/327 328/229/328 103/230/103
f 94/231/94 455/232/455 456/233/456 111/234/111
f 87/235/87 343/236/343 344/237/344 104/238/104
f 95/182/95 471/181/471 472/239/472 112/240/112
f 88/184/88 359/183/359 360/241/360 105/242/105
f 96/186/96 487/185/487 488/243/488 113/244/113
f 98/194/98 115/216/115 536/219/536 535/201/535
f 91/198/91 108/218/108 424/221/424 423/203/423
f 110/228/110 440/227/440 441/245/441 127/246/127
f 103/230/103 328/229/328 329/247/329 120/248/120
f 111/234/111 456/233/456 457/249/457 128/250/128
f 104/238/104 344/237/344 345/251/345 121/252/121
f 112/240/112 472/239/472 473/253/473 129/254/129
f 105/242/105 360/241/360 361/255/361 122/256/122
f 113/244/113 488/243/488 489/257/489 130/258/130
f 106/259/106 376/260/376 377/261/377 123/262/123
f 114/263/114 504/264/504 505/265/505 131/266/131
f 107/214/107 392/213/392 393/267/393 124/268/124
f 115/216/115 520/215/520 521/269/521 132/270/132
f 108/218/108 408/217/408 409/271/409 125/272/125
f 116/220/116 536/219/536 537/273/537 133/274/133
f 103/230/103 120/248/120 345/251/345 344/237/344
f 118/275/118 135/276/135 585/277/585 584/278/584
f 111/234/111 128/250/128 473/253/473 472/239/472
f 130/258/130 489/257/489 490/279/490 147/280/147
f 123/262/123 377/261/377 378/281/378 140/282/140
f 131/266/131 505/265/505 506/283/506 148/284/148
f 124/268/124 393/267/393 394/285/394 141/286/141
f 132/270/132 521/269/521 522/287/522 149/288/149
f 125/272/125 409/271/409 410/289/410 142/290/142
f 133/274/133 537/273/537 538/291/538 150/292/150
f 126/293/126 425/294/425 426/295/426 143/296/143
f 119/297/119 313/298/313 314/299/314 136/300/136
f 134/301/134 553/302/553 554/303/554 151/304/151
f 127/246/127 441/245/441 442/305/442 144/306/144
f 120/248/120 329/247/329 330/307/330 137/308/137
f 128/250/128 457/249/457 458/309/458 145/310/145
f 121/252/121 345/251/345 346/311/346 138/312/138
f 123/262/123 140/282/140 394/285/394 393/267/393
f 131/266/131 148/284/148 522/287/522 521/269/521
f 142/290/142 410/289/410 411/313/411 159/314/159
f 150/292/150 538/291/538 539/315/539 167/316/167
f 143/296/143 426/295/426 427/317/427 160/318/160
f 136/300/136 314/299/314 315/319/315 153/320/153
f 151/304/151 554/303/554 555/321/555 168/322/168
f 144/306/144 442/305/442 443/323/443 161/324/161
f 137/308/137 330/307/330 331/325/331 154/326/154
f 145/310/145 458/309/458 459/327/459 162/328/162
f 138/312/138 346/311/346 347/329/347 155/330/155
f 146/331/146 474/332/474 475/333/475 163/334/163
f 139/335/139 362/336/362 363/337/363 156/338/156
f 147/280/147 490/279/490 491/339/491 164/340/164
f 140/282/140 378/281/378 379/341/379 157/342/157
f 148/284/148 506/283/506 507/343/507 165/344/165
f 150/292/150 167/316/167 555/321/555 554/303/554
f 143/296/143 160/318/160 443/323/443 442/305/442
f 162/328/162 459/327/459 460/345/460 179/346/179
f 155/330/155 347/329/347 348/347/348 172/348/172
f 163/334/163 475/333/475 476/349/476 180/350/180
f 156/338/156 363/337/363 364/351/364 173/352/173
f 164/340/164 491/339/491 492/353/492 181/354/181
f 157/342/157 379/341/379 380/355/380 174/356/174
f 165/344/165 507/343/507 508/357/508 182/358/182
f 158/359/158 395/360/395 396/361/396 175/362/175
f 166/363/166 523/364/523 524/365/524 183/366/183
f 159/314/159 411/313/411 412/367/412 176/368/176
f 167/316/167 539/315/539 540/369/540 184/370/184
f 160/318/160 427/317/427 428/371/428 177/372/177
f 153/320/153 315/319/315 316/373/316 170/374/170
f 168/322/168 555/321/555 556/375/556 185/376/185
f 155/330/155 172/348/172 364/351/364 363/337/363
f 169/377/169 571/378/571 572/379/572 186/380/186
f 182/358/182 508/357/508 509/381/509 199/382/199
f 175/362/175 396/361/396 397/383/397 192/384/192
f 183/366/183 524/365/524 525/385/525 200/386/200
f 176/368/176 412/367/412 413/387/413 193/388/193
f 309/129/309 279/389/279 281/390/281 310/151/310
f 184/370/184 540/369/540 541/391/541 201/392/201
f 177/372/177 428/371/428 429/393/429 194/394/194
f 170/374/170 316/373/316 317/395/317 187/396/187
f 185/376/185 556/375/556 557/397/557 202/398/202
f 178/399/178 444/400/444 445/401/445 195/402/195
f 171/403/171 332/404/332 333/405/333 188/406/188
f 179/346/179 460/345/460 461/407/461 196/408/196
f 172/348/172 348/347/348 349/409/349 189/410/189
f 180/350/180 476/349/476 477/411/477 197/412/197
f 173/352/173 364/351/364 365/413/365 190/414/190
f 186/380/186 572/379/572 573/415/573 203/416/203
f 175/362/175 192/384/192 413/387/413 412/367/412
f 183/366/183 200/386/200 541/391/541 540/369/540
f 194/394/194 429/393/429 430/417/430 211/418/211
f 187/396/187 317/395/317 318/419/318 204/420/204
f 202/398/202 557/397/557 558/421/558 219/422/219
f 195/402/195 445/401/445 446/423/446 212/424/212
f 188/406/188 333/405/333 334/425/334 205/426/205
f 196/408/196 461/407/461 462/427/462 213/428/213
f 189/410/189 349/409/349 350/429/350 206/430/206
f 197/412/197 477/411/477 478/431/478 214/432/214
f 190/414/190 365/413/365 366/433/366 207/434/207
f 67/435/67 565/436/565 566/437/566 84/438/84
f 198/439/198 493/440/493 494/441/494 215/442/215
f 191/443/191 381/444/381 382/445/382 208/446/208
f 118/275/118 568/447/568 569/448/569 135/276/135
f 308/113/308 277/449/277 279/389/279 309/129/309
f 199/382/199 509/381/509 510/450/510 216/451/216
f 192/384/192 397/383/397 398/452/398 209/453/209
f 203/416/203 573/415/573 574/454/574 220/455/220
f 306/39/306 275/456/275 277/449/277 308/113/308
f 200/386/200 525/385/525 526/457/526 217/458/217
f 187/396/187 204/420/204 334/425/334 333/405/333
f 311/205/311 283/459/283 285/460/285 312/223/312
f 195/402/195 212/424/212 462/427/462 461/407/461
f 214/432/214 478/431/478 479/461/479 231/462/231
f 207/434/207 366/433/366 367/463/367 224/464/224
f 215/442/215 494/441/494 495/465/495 232/466/232
f 208/446/208 382/445/382 383/467/383 225/468/225
f 163/334/163 180/350/180 492/353/492 491/339/491
f 310/151/310 281/390/281 283/459/283 311/205/311
f 216/451/216 510/450/510 511/469/511 233/470/233
f 209/453/209 398/452/398 399/471/399 226/472/226
f 313/298/313 287/473/287 289/474/289 314/299/314
f 217/458/217 526/457/526 527/475/527 234/476/234
f 210/477/210 414/478/414 415/479/415 227/480/227
f 317/395/317 295/481/295 297/482/297 318/419/318
f 218/483/218 542/484/542 543/485/543 235/486/235
f 211/418/211 430/417/430 431/487/431 228/488/228
f 204/420/204 318/419/318 319/489/319 221/490/221
f 219/422/219 558/421/558 559/491/559 236/492/236
f 212/424/212 446/423/446 447/493/447 229/494/229
f 205/426/205 334/425/334 335/495/335 222/496/222
f 207/434/207 224/464/224 383/467/383 382/445/382
f 215/442/215 232/466/232 511/469/511 510/450/510
f 237/497/237 575/498/575 576/499/576 254/500/254
f 271/501/271 561/502/561 562/503/562 16/504/16
f 312/223/312 285/460/285 287/473/287 313/298/313
f 234/476/234 527/475/527 528/505/528 251/506/251
f 227/480/227 415/479/415 416/507/416 244/508/244
f 316/373/316 293/509/293 295/481/295 317/395/317
f 235/486/235 543/485/543 544/510/544 252/511/252
f 228/488/228 431/487/431 432/512/432 245/513/245
f 221/490/221 319/489/319 320/514/320 238/515/238
f 236/492/236 559/491/559 560/516/560 253/517/253
f 229/494/229 447/493/447 448/518/448 246/519/246
f 222/496/222 335/495/335 336/520/336 239/521/239
f 230/522/230 463/523/463 464/524/464 247/525/247
f 223/526/223 351/527/351 352/528/352 240/529/240
f 254/500/254 576/499/576 561/502/561 271/501/271
f 231/462/231 479/461/479 480/530/480 248/531/248
f 224/464/224 367/463/367 368/532/368 241/533/241
f 78/164/78 95/182/95 487/185/487 486/171/486
f 232/466/232 495/465/495 496/534/496 249/535/249
f 225/468/225 383/467/383 384/536/384 242/537/242
f 50/538/50 564/539/564 565/436/565 67/435/67
f 315/319/315 291/540/291 293/509/293 316/373/316
f 227/480/227 244/508/244 432/512/432 431/487/431
f 235/486/235 252/511/252 560/516/560 559/491/559
f 246/519/246 448/518/448 433/46/433 263/45/263
f 239/521/239 336/520/336 323/62/323 256/61/256
f 247/525/247 464/524/464 449/58/449 264/57/264
f 240/529/240 352/528/352 339/541/339 257/542/257
f 248/531/248 480/530/480 465/543/465 265/544/265
f 241/533/241 368/532/368 353/545/353 258/546/258
f 135/276/135 569/448/569 570/547/570 152/548/152
f 249/535/249 496/534/496 481/6/481 266/5/266
f 242/537/242 384/536/384 369/10/369 259/9/259
f 101/549/101 567/550/567 568/447/568 118/275/118
f 318/419/318 297/482/297 299/551/299 319/489/319
f 250/552/250 512/553/512 497/14/497 267/13/267
f 243/554/243 400/555/400 385/18/385 260/17/260
f 220/455/220 574/454/574 575/498/575 237/497/237
f 319/489/319 299/551/299 301/556/301 320/514/320
f 251/506/251 528/505/528 513/22/513 268/21/268
f 244/508/244 416/507/416 401/26/401 261/25/261
f 307/50/307 303/557/303 273/558/273 305/51/305
f 252/511/252 544/510/544 529/30/529 269/29/269
f 239/521/239 256/61/256 339/541/339 352/528/352
f 254/500/254 271/501/271 577/559/577 592/560/592
f 247/525/247 264/57/264 465/543/465 480/530/480
f 4/561/4 21/85/21 387/94/387 386/562/386
f 3/563/3 354/564/354 355/78/355 20/77/20
f 33/56/33 563/55/563 564/539/564 50/538/50
f 320/514/320 301/556/301 303/557/303 307/50/307
f 11/565/11 482/566/482 483/82/483 28/81/28
f 4/561/4 370/567/370 371/86/371 21/85/21
f 152/548/152 570/547/570 571/378/571 169/377/169
f 314/299/314 289/474/289 291/540/291 315/319/315
f 12/568/12 498/569/498 499/90/499 29/89/29
f 5/570/5 386/562/386 387/94/387 22/93/22
f 13/571/13 514/572/514 515/98/515 30/97/30
f 6/573/6 402/574/402 403/102/403 23/101/23
f 14/575/14 530/576/530 531/106/531 31/105/31
f 7/577/7 418/578/418 419/110/419 24/109/24
f 257/542/257 339/541/339 337/579/337 2/580/2
f 15/581/15 546/582/546 547/583/547 32/584/32
f 8/585/8 434/586/434 435/587/435 25/588/25
f 267/13/267 12/16/12 514/23/514 513/22/513
f 9/589/9 450/590/450 451/66/451 26/65/26
f 11/565/11 28/81/28 499/90/499 498/569/498
f 2/591/2 337/592/337 338/70/338 19/69/19
f 2/591/2 19/69/19 355/78/355 354/564/354
f 10/593/10 466/594/466 467/74/467 27/73/27
f 10/593/10 27/73/27 483/82/483 482/566/482
f 12/568/12 29/89/29 515/98/515 514/572/514
f 5/570/5 22/93/22 403/102/403 402/574/402
f 13/571/13 30/97/30 531/106/531 530/576/530
f 6/573/6 23/101/23 419/110/419 418/578/418
f 14/575/14 31/105/31 547/583/547 546/582/546
f 7/577/7 24/109/24 435/587/435 434/586/434
f 1/37/1 17/40/17 322/3/322 321/2/321
f 15/581/15 32/584/32 563/55/563 562/54/562
f 8/585/8 25/588/25 451/66/451 450/590/450
f 16/53/16 33/56/33 579/595/579 578/596/578
f 9/589/9 26/65/26 467/74/467 466/594/466
f 33/56/33 50/538/50 580/597/580 579/595/579
f 32/584/32 547/583/547 548/132/548 49/131/49
f 32/584/32 49/131/49 564/539/564 563/55/563
f 25/588/25 435/587/435 436/136/436 42/135/42
f 25/588/25 42/135/42 452/67/452 451/66/451
f 18/4/18 322/3/322 324/140/324 35/139/35
f 18/4/18 35/139/35 340/71/340 338/70/338
f 20/77/20 37/80/37 372/87/372 371/86/371
f 28/81/28 45/84/45 500/91/500 499/90/499
f 21/85/21 38/88/38 388/95/388 387/94/387
f 29/89/29 46/92/46 516/99/516 515/98/515
f 22/93/22 39/96/39 404/103/404 403/102/403
f 30/97/30 47/100/47 532/107/532 531/106/531
f 23/101/23 40/104/40 420/111/420 419/110/419
f 31/105/31 48/108/48 548/132/548 547/583/547
f 24/109/24 41/112/41 436/136/436 435/587/435
f 17/40/17 34/114/34 324/140/324 322/3/322
f 38/88/38 55/116/55 389/119/389 388/95/388
f 37/80/37 356/79/356 357/166/357 54/165/54
f 37/80/37 54/165/54 373/115/373 372/87/372
f 45/84/45 484/83/484 485/170/485 62/169/62
f 45/84/45 62/169/62 501/117/501 500/91/500
f 47/100/47 64/122/64 533/125/533 532/107/532
f 40/104/40 57/124/57 421/127/421 420/111/420
f 48/108/48 65/126/65 549/133/549 548/132/548
f 41/112/41 58/128/58 437/137/437 436/136/436
f 34/114/34 51/130/51 325/141/325 324/140/324
f 49/131/49 66/134/66 565/436/565 564/539/564
f 42/135/42 59/138/59 453/143/453 452/67/452
f 35/139/35 52/142/52 341/145/341 340/71/340
f 50/538/50 67/435/67 581/598/581 580/597/580
f 43/68/43 60/144/60 469/147/469 468/75/468
f 36/72/36 53/146/53 357/166/357 356/79/356
f 44/76/44 61/148/61 485/170/485 484/83/484
f 58/128/58 75/150/75 438/155/438 437/137/437
f 57/124/57 405/123/405 406/196/406 74/195/74
f 57/124/57 74/195/74 422/149/422 421/127/421
f 66/134/66 83/154/83 566/437/566 565/436/565
f 65/126/65 533/125/533 534/200/534 82/199/82
f 65/126/65 82/199/82 550/153/550 549/133/549
f 52/142/52 69/158/69 342/161/342 341/145/341
f 67/435/67 84/438/84 582/599/582 581/598/581
f 60/144/60 77/160/77 470/163/470 469/147/469
f 53/146/53 70/162/70 358/167/358 357/166/357
f 61/148/61 78/164/78 486/171/486 485/170/485
f 54/165/54 71/168/71 374/173/374 373/115/373
f 62/169/62 79/172/79 502/175/502 501/117/501
f 55/116/55 72/174/72 390/177/390 389/119/389
f 63/118/63 80/176/80 518/179/518 517/121/517
f 56/120/56 73/178/73 406/196/406 405/123/405
f 64/122/64 81/180/81 534/200/534 533/125/533
f 84/438/84 566/437/566 567/550/567 101/549/101
f 84/438/84 101/549/101 583/600/583 582/599/582
f 77/160/77 454/159/454 455/232/455 94/231/94
f 77/160/77 94/231/94 471/181/471 470/163/470
f 70/162/70 342/161/342 343/236/343 87/235/87
f 70/162/70 87/235/87 359/183/359 358/167/358
f 72/174/72 89/188/89 391/191/391 390/177/390
f 80/176/80 97/190/97 519/193/519 518/179/518
f 73/178/73 90/192/90 407/197/407 406/196/406
f 81/180/81 98/194/98 535/201/535 534/200/534
f 74/195/74 91/198/91 423/203/423 422/149/422
f 82/199/82 99/202/99 551/207/551 550/153/550
f 75/150/75 92/204/92 439/209/439 438/155/438
f 68/152/68 85/206/85 327/211/327 326/157/326
f 83/154/83 100/208/100 567/550/567 566/437/566
f 76/156/76 93/210/93 455/232/455 454/159/454
f 69/158/69 86/212/86 343/236/343 342/161/342
f 90/192/90 107/214/107 408/217/408 407/197/407
f 89/188/89 375/187/375 376/260/376 106/259/106
f 89/188/89 106/259/106 392/213/392 391/191/391
f 97/190/97 503/189/503 504/264/504 114/263/114
f 97/190/97 114/263/114 520/215/520 519/193/519
f 99/202/99 116/220/116 552/225/552 551/207/551
f 92/204/92 109/222/109 440/227/440 439/209/439
f 85/206/85 102/224/102 328/229/328 327/211/327
f 100/208/100 117/226/117 568/447/568 567/550/567
f 93/210/93 110/228/110 456/233/456 455/232/455
f 86/212/86 103/230/103 344/237/344 343/236/343
f 101/549/101 118/275/118 584/278/584 583/600/583
f 94/231/94 111/234/111 472/239/472 471/181/471
f 87/235/87 104/238/104 360/241/360 359/183/359
f 95/182/95 112/240/112 488/243/488 487/185/487
f 88/184/88 105/242/105 376/260/376 375/187/375
f 96/186/96 113/244/113 504/264/504 503/189/503
f 110/228/110 127/246/127 457/249/457 456/233/456
f 109/222/109 424/221/424 425/294/425 126/293/126
f 109/222/109 126/293/126 441/245/441 440/227/440
f 102/224/102 312/223/312 313/298/313 119/297/119
f 102/224/102 119/297/119 329/247/329 328/229/328
f 117/226/117 552/225/552 553/302/553 134/301/134
f 117/226/117 134/301/134 569/448/569 568/447/568
f 104/238/104 121/252/121 361/255/361 360/241/360
f 112/240/112 129/254/129 489/257/489 488/243/488
f 105/242/105 122/256/122 377/261/377 376/260/376
f 113/244/113 130/258/130 505/265/505 504/264/504
f 106/259/106 123/262/123 393/267/393 392/213/392
f 114/263/114 131/266/131 521/269/521 520/215/520
f 107/214/107 124/268/124 409/271/409 408/217/408
f 115/216/115 132/270/132 537/273/537 536/219/536
f 108/218/108 125/272/125 425/294/425 424/221/424
f 116/220/116 133/274/133 553/302/553 552/225/552
f 130/258/130 147/280/147 506/283/506 505/265/505
f 129/254/129 473/253/473 474/332/474 146/331/146
f 129/254/129 146/331/146 490/279/490 489/257/489
f 122/256/122 361/255/361 362/336/362 139/335/139
f 122/256/122 139/335/139 378/281/378 377/261/377
f 124/268/124 141/286/141 410/289/410 409/271/409
f 132/270/132 149/288/149 538/291/538 537/273/537
f 125/272/125 142/290/142 426/295/426 425/294/425
f 133/274/133 150/292/150 554/303/554 553/302/553
f 126/293/126 143/296/143 442/305/442 441/245/441
f 119/297/119 136/300/136 330/307/330 329/247/329
f 134/301/134 151/304/151 570/547/570 569/448/569
f 127/246/127 144/306/144 458/309/458 457/249/457
f 120/248/120 137/308/137 346/311/346 345/251/345
f 135/276/135 152/548/152 586/601/586 585/277/585
f 128/250/128 145/310/145 474/332/474 473/253/473
f 121/252/121 138/312/138 362/336/362 361/255/361
f 142/290/142 159/314/159 427/317/427 426/295/426
f 141/286/141 394/285/394 395/360/395 158/359/158
f 141/286/141 158/359/158 411/313/411 410/289/410
f 149/288/149 522/287/522 523/364/523 166/363/166
f 149/288/149 166/363/166 539/315/539 538/291/538
f 136/300/136 153/320/153 331/325/331 330/307/330
f 151/304/151 168/322/168 571/378/571 570/547/570
f 144/306/144 161/324/161 459/327/459 458/309/458
f 137/308/137 154/326/154 347/329/347 346/311/346
f 152/548/152 169/377/169 587/602/587 586/601/586
f 145/310/145 162/328/162 475/333/475 474/332/474
f 138/312/138 155/330/155 363/337/363 362/336/362
f 146/331/146 163/334/163 491/339/491 490/279/490
f 139/335/139 156/338/156 379/341/379 378/281/378
f 147/280/147 164/340/164 507/343/507 506/283/506
f 140/282/140 157/342/157 395/360/395 394/285/394
f 148/284/148 165/344/165 523/364/523 522/287/522
f 162/328/162 179/346/179 476/349/476 475/333/475
f 161/324/161 443/323/443 444/400/444 178/399/178
f 161/324/161 178/399/178 460/345/460 459/327/459
f 154/326/154 331/325/331 332/404/332 171/403/171
f 154/326/154 171/403/171 348/347/348 347/329/347
f 169/377/169 186/380/186 588/603/588 587/602/587
f 156/338/156 173/352/173 380/355/380 379/341/379
f 164/340/164 181/354/181 508/357/508 507/343/507
f 157/342/157 174/356/174 396/361/396 395/360/395
f 165/344/165 182/358/182 524/365/524 523/364/523
f 158/359/158 175/362/175 412/367/412 411/313/411
f 166/363/166 183/366/183 540/369/540 539/315/539
f 159/314/159 176/368/176 428/371/428 427/317/427
f 167/316/167 184/370/184 556/375/556 555/321/555
f 160/318/160 177/372/177 444/400/444 443/323/443
f 153/320/153 170/374/170 332/404/332 331/325/331
f 168/322/168 185/376/185 572/379/572 571/378/571
f 182/358/182 199/382/199 525/385/525 524/365/524
f 181/354/181 492/353/492 493/440/493 198/439/198
f 181/354/181 198/439/198 509/381/509 508/357/508
f 174/356/174 380/355/380 381/444/381 191/443/191
f 174/356/174 191/443/191 397/383/397 396/361/396
f 176/368/176 193/388/193 429/393/429 428/371/428
f 184/370/184 201/392/201 557/397/557 556/375/556
f 177/372/177 194/394/194 445/401/445 444/400/444
f 170/374/170 187/396/187 333/405/333 332/404/332
f 185/376/185 202/398/202 573/415/573 572/379/572
f 178/399/178 195/402/195 461/407/461 460/345/460
f 171/403/171 188/406/188 349/409/349 348/347/348
f 186/380/186 203/416/203 589/604/589 588/603/588
f 179/346/179 196/408/196 477/411/477 476/349/476
f 172/348/172 189/410/189 365/413/365 364/351/364
f 180/350/180 197/412/197 493/440/493 492/353/492
f 173/352/173 190/414/190 381/444/381 380/355/380
f 194/394/194 211/418/211 446/423/446 445/401/445
f 193/388/193 413/387/413 414/478/414 210/477/210
f 193/388/193 210/477/210 430/417/430 429/393/429
f 202/398/202 219/422/219 574/454/574 573/415/573
f 201/392/201 541/391/541 542/484/542 218/483/218
f 201/392/201 218/483/218 558/421/558 557/397/557
f 188/406/188 205/426/205 350/429/350 349/409/349
f 203/416/203 220/455/220 590/605/590 589/604/589
f 196/408/196 213/428/213 478/431/478 477/411/477
f 189/410/189 206/430/206 366/433/366 365/413/365
f 197/412/197 214/432/214 494/441/494 493/440/493
f 190/414/190 207/434/207 382/445/382 381/444/381
f 198/439/198 215/442/215 510/450/510 509/381/509
f 191/443/191 208/446/208 398/452/398 397/383/397
f 199/382/199 216/451/216 526/457/526 525/385/525
f 192/384/192 209/453/209 414/478/414 413/387/413
f 200/386/200 217/458/217 542/484/542 541/391/541
f 214/432/214 231/462/231 495/465/495 494/441/494
f 213/428/213 462/427/462 463/523/463 230/522/230
f 213/428/213 230/522/230 479/461/479 478/431/478
f 206/430/206 350/429/350 351/527/351 223/526/223
f 206/430/206 223/526/223 367/463/367 366/433/366
f 208/446/208 225/468/225 399/471/399 398/452/398
f 216/451/216 233/470/233 527/475/527 526/457/526
f 209/453/209 226/472/226 415/479/415 414/478/414
f 217/458/217 234/476/234 543/485/543 542/484/542
f 210/477/210 227/480/227 431/487/431 430/417/430
f 218/483/218 235/486/235 559/491/559 558/421/558
f 211/418/211 228/488/228 447/493/447 446/423/446
f 204/420/204 221/490/221 335/495/335 334/425/334
f 219/422/219 236/492/236 575/498/575 574/454/574
f 212/424/212 229/494/229 463/523/463 462/427/462
f 205/426/205 222/496/222 351/527/351 350/429/350
f 220/455/220 237/497/237 591/606/591 590/605/590
f 234/476/234 251/506/251 544/510/544 543/485/543
f 233/470/233 511/469/511 512/553/512 250/552/250
f 233/470/233 250/552/250 528/505/528 527/475/527
f 226/472/226 399/471/399 400/555/400 243/554/243
f 226/472/226 243/554/243 416/507/416 415/479/415
f 228/488/228 245/513/245 448/518/448 447/493/447
f 221/490/221 238/515/238 336/520/336 335/495/335
f 236/492/236 253/517/253 576/499/576 575/498/575
f 229/494/229 246/519/246 464/524/464 463/523/463
f 222/496/222 239/521/239 352/528/352 351/527/351
f 237/497/237 254/500/254 592/560/592 591/606/591
f 230/522/230 247/525/247 480/530/480 479/461/479
f 223/526/223 240/529/240 368/532/368 367/463/367
f 231/462/231 248/531/248 496/534/496 495/465/495
f 224/464/224 241/533/241 384/536/384 383/467/383
f 232/466/232 249/535/249 512/553/512 511/469/511
f 225/468/225 242/537/242 400/555/400 399/471/399
f 246/519/246 263/45/263 449/58/449 464/524/464
f 245/513/245 432/512/432 417/34/417 262/33/262
f 245/513/245 262/33/262 433/46/433 448/518/448
f 238/515/238 320/514/320 307/50/307 255/49/255
f 238/515/238 255/49/255 323/62/323 336/520/336
f 253/517/253 560/516/560 545/42/545 270/41/270
f 253/517/253 270/41/270 561/502/561 576/499/576
f 240/529/240 257/542/257 353/545/353 368/532/368
f 248/531/248 265/544/265 481/6/481 496/534/496
f 241/533/241 258/546/258 369/10/369 384/536/384
f 249/535/249 266/5/266 497/14/497 512/553/512
f 242/537/242 259/9/259 385/18/385 400/555/400
f 250/552/250 267/13/267 513/22/513 528/505/528
f 243/554/243 260/17/260 401/26/401 416/507/416
f 251/506/251 268/21/268 529/30/529 544/510/544
f 244/508/244 261/25/261 417/34/417 432/512/432
f 252/511/252 269/29/269 545/42/545 560/516/560
f 256/61/256 272/64/272 337/579/337 339/541/339
f 272/1/272 18/4/18 338/70/338 337/592/337
f 266/5/266 11/8/11 498/15/498 497/14/497
f 265/544/265 465/543/465 466/607/466 10/608/10
f 265/544/265 10/608/10 482/7/482 481/6/481
f 258/546/258 353/545/353 354/609/354 3/610/3
f 258/546/258 3/610/3 370/11/370 369/10/369
f 260/17/260 5/20/5 402/27/402 401/26/401
f 268/21/268 13/24/13 530/31/530 529/30/529
f 261/25/261 6/28/6 418/35/418 417/34/417
f 269/29/269 14/32/14 546/43/546 545/42/545
f 262/33/262 7/36/7 434/47/434 433/46/433
f 255/49/255 1/52/1 321/63/321 323/62/323
f 270/41/270 15/44/15 562/503/562 561/502/561
f 263/45/263 8/48/8 450/59/450 449/58/449
f 271/501/271 16/504/16 578/611/578 577/559/577
f 264/57/264 9/60/9 466/607/466 465/543/465
f 257/542/257 2/580/2 354/609/354 353/545/353
f 670/612/654 668/613/652 300/389/300 302/449/302
f 662/614/646 660/615/644 292/473/292 294/460/294
f 644/616/628 642/617/626 274/618/274 276/619/276
f 660/615/644 658/620/642 290/474/290 292/473/292
f 652/621/636 650/622/634 282/482/282 284/481/284
f 650/622/634 648/623/632 280/551/280 282/482/282
f 668/613/652 666/624/650 298/390/298 300/389/300
f 658/620/642 656/625/640 288/626/288 290/474/290
f 666/624/650 664/627/648 296/459/296 298/390/298
f 305/38/305 273/628/273 275/456/275 306/39/306
f 290/629/290 586/601/586 587/602/587 292/630/292
f 276/631/276 579/595/579 580/597/580 278/632/278
f 298/633/298 590/605/590 591/606/591 300/634/300
f 284/635/284 583/600/583 584/278/584 286/636/286
f 288/637/288 585/277/585 586/601/586 290/629/290
f 278/632/278 580/597/580 581/598/581 280/638/280
f 282/639/282 582/599/582 583/600/583 284/635/284
f 302/640/302 592/560/592 577/559/577 304/641/304
f 304/641/304 577/559/577 578/611/578 274/642/274
f 300/634/300 591/606/591 592/560/592 302/640/302
f 292/630/292 587/602/587 588/603/588 294/643/294
f 296/644/296 589/604/589 590/605/590 298/633/298
f 286/636/286 584/278/584 585/277/585 288/637/288
f 280/638/280 581/598/581 582/599/582 282/639/282
f 294/643/294 588/603/588 589/604/589 296/644/296
f 274/645/274 578/596/578 579/595/579 276/631/276
f 672/646/656 670/612/654 302/449/302 304/647/304
f 646/648/630 644/616/628 276/619/276 278/556/278
f 654/649/638 652/621/636 284/481/284 286/509/286
f 656/625/640 654/649/638 286/509/286 288/626/288
f 664/627/648 662/614/646 294/460/294 296/459/296
f 642/650/626 672/646/656 304/647/304 274/651/274
f 648/623/632 646/648/630 278/556/278 280/551/280
f 637/652/623 639/653/624 595/654/127 596/655/110
f 642/617/626 644/616/628 698/656/682 699/657/683
f 678/658/662 677/659/661 617/660/607 618/661/608
f 699/657/683 698/656/682 611/662/602 613/663/603
f 662/614/646 664/627/648 700/658/684 689/664/673
f 656/625/640 658/620/642 691/665/675 692/666/676
f 679/664/663 678/658/662 618/661/608 619/667/609
f 698/656/682 697/668/681 609/669/601 611/662/602
f 680/670/664 679/664/663 619/667/609 620/671/610
f 697/668/681 696/672/680 607/673/600 609/669/601
f 613/663/603 611/662/602 606/674/161 604/675/144
f 654/649/638 656/625/640 692/666/676 693/676/677
f 696/672/680 695/677/679 605/678/599 607/673/600
f 639/653/624 613/679/603 604/680/144 595/654/127
f 695/677/679 694/681/678 603/682/598 605/678/599
f 603/682/598 601/683/597 632/684/246 630/685/229
f 681/665/665 680/670/664 620/671/610 621/686/611
f 652/621/636 654/649/638 693/676/677 694/681/678
f 682/687/666 681/665/665 621/686/611 622/688/612
f 694/681/678 693/676/677 601/683/597 603/682/598
f 683/676/667 682/687/666 622/688/612 623/683/613
f 693/676/677 692/666/676 599/689/596 601/683/597
f 607/673/600 605/678/599 612/690/212 610/691/195
f 650/622/634 652/621/636 694/681/678 695/677/679
f 633/660/621 635/692/622 598/693/93 600/694/76
f 648/623/632 650/622/634 695/677/679 696/672/680
f 646/648/630 648/623/632 696/672/680 697/668/681
f 684/681/668 683/676/667 623/683/613 624/682/614
f 692/666/676 691/665/675 597/686/595 599/689/596
f 685/677/669 684/681/668 624/682/614 625/678/615
f 691/665/675 690/670/674 594/671/594 597/686/595
f 593/667/593 631/661/620 602/695/59 640/696/42
f 658/620/642 660/615/644 690/670/674 691/665/675
f 597/686/595 594/671/594 638/697/25 636/698/8
f 644/616/628 646/648/630 697/668/681 698/656/682
f 686/672/670 685/677/669 625/678/615 626/673/616
f 611/662/602 609/669/601 608/699/178 606/674/161
f 687/700/671 686/672/670 626/673/616 627/701/617
f 702/702/686 703/703/687 637/652/623 635/692/622
f 688/704/672 687/700/671 627/701/617 628/705/618
f 703/703/687 704/706/688 639/653/624 637/652/623
f 674/707/658 688/704/672 628/705/618 629/708/619
f 704/706/688 699/709/683 613/679/603 639/653/624
f 677/659/661 676/702/660 616/692/606 617/660/607
f 643/710/627 641/711/625 674/712/658 673/713/657
f 593/667/593 689/664/673 700/658/684 631/661/620
f 645/612/629 643/710/627 673/713/657 675/714/659
f 673/713/657 614/715/604 615/716/605 675/714/659
f 647/613/631 645/612/629 675/714/659 676/702/660
f 649/624/633 647/613/631 676/702/660 677/659/661
f 651/627/635 649/624/633 677/659/661 678/658/662
f 653/614/637 651/627/635 678/658/662 679/664/663
f 655/615/639 653/614/637 679/664/663 680/670/664
f 657/620/641 655/615/639 680/670/664 681/665/665
f 659/717/643 657/620/641 681/665/665 682/687/666
f 661/649/645 659/717/643 682/687/666 683/676/667
f 663/621/647 661/649/645 683/676/667 684/681/668
f 665/622/649 663/621/647 684/681/668 685/677/669
f 667/623/651 665/622/649 685/677/669 686/672/670
f 669/648/653 667/623/651 686/672/670 687/700/671
f 671/718/655 669/648/653 687/700/671 688/704/672
f 641/719/625 671/718/655 688/704/672 674/707/658
f 660/615/644 662/614/646 689/664/673 690/670/674
f 664/627/648 666/624/650 701/659/685 700/658/684
f 631/661/620 633/660/621 600/694/76 602/695/59
f 666/624/650 668/613/652 702/702/686 701/659/685
f 605/678/599 603/682/598 630/685/229 612/690/212
f 609/669/601 607/673/600 610/691/195 608/699/178
f 668/613/652 670/612/654 703/703/687 702/702/686
f 635/692/622 637/652/623 596/655/110 598/693/93
f 670/612/654 672/646/656 704/706/688 703/703/687
f 594/671/594 593/667/593 640/696/42 638/697/25
f 599/689/596 597/686/595 636/698/8 634/720/263
f 601/683/597 599/689/596 634/720/263 632/684/246
f 672/646/656 642/650/626 699/709/683 704/706/688
f 701/659/685 702/702/686 635/692/622 633/660/621
f 649/624/633 651/627/635 283/459/283 281/390/281
f 667/623/651 669/648/653 301/556/301 299/551/299
f 665/622/649 667/623/651 299/551/299 297/482/297
f 657/620/641 659/717/643 291/540/291 289/474/289
f 655/615/639 657/620/641 289/474/289 287/473/287
f 647/613/631 649/624/633 281/390/281 279/389/279
f 676/702/660 675/714/659 615/716/605 616/692/606
f 690/670/674 689/664/673 593/667/593 594/671/594
f 641/711/625 643/710/627 275/456/275 273/628/273
f 651/627/635 653/614/637 285/460/285 283/459/283
f 659/717/643 661/649/645 293/509/293 291/540/291
f 661/649/645 663/621/647 295/481/295 293/509/293
f 669/648/653 671/718/655 303/557/303 301/556/301
f 643/710/627 645/612/629 277/449/277 275/456/275
f 671/718/655 641/719/625 273/558/273 303/557/303
f 663/621/647 665/622/649 297/482/297 295/481/295
f 645/612/629 647/613/631 279/389/279 277/449/277
f 653/614/637 655/615/639 287/473/287 285/460/285
f 625/678/615 624/682/614 715/685/59 716/690/76
f 618/661/608 617/660/607 708/694/212 709/695/229
f 626/673/616 625/678/615 716/690/76 717/691/93
f 619/667/609 618/661/608 709/695/229 710/696/246
f 627/701/617 626/673/616 717/691/93 718/699/110
f 620/671/610 619/667/609 710/696/246 711/697/263
f 628/705/618 627/701/617 718/699/110 719/721/127
f 621/686/611 620/671/610 711/697/263 712/698/8
f 629/708/619 628/705/618 719/721/127 720/722/144
f 622/688/612 621/686/611 712/698/8 713/720/25
f 615/716/605 614/715/604 705/723/161 706/655/178
f 614/715/604 629/724/619 720/725/144 705/723/161
f 623/683/613 622/688/612 713/720/25 714/684/42
f 616/692/606 615/716/605 706/655/178 707/693/195
f 624/682/614 623/683/613 714/684/42 715/685/59
f 617/660/607 616/692/606 707/693/195 708/694/212
f 673/713/657 674/712/658 629/724/619 614/715/604
f 700/658/684 701/659/685 633/660/621 631/661/620
f 3/563/3 20/77/20 371/86/371 370/567/370
